<?xml version="1.0" encoding="UTF-8" standalone="no"?>
<svg
   xmlns:dc="http://purl.org/dc/elements/1.1/"
   xmlns:cc="http://creativecommons.org/ns#"
   xmlns:rdf="http://www.w3.org/1999/02/22-rdf-syntax-ns#"
   xmlns:svg="http://www.w3.org/2000/svg"
   xmlns="http://www.w3.org/2000/svg"
   xmlns:xlink="http://www.w3.org/1999/xlink"
   xmlns:sodipodi="http://sodipodi.sourceforge.net/DTD/sodipodi-0.dtd"
   xmlns:inkscape="http://www.inkscape.org/namespaces/inkscape"
   viewBox="0 0 687.33997 838.50551"
   version="1.1"
   id="svg47"
   sodipodi:docname="indian-149470.svg"
   width="687.33997"
   height="838.50549"
   inkscape:version="0.92.5 (2060ec1f9f, 2020-04-08)">
  <metadata
     id="metadata51">
    <rdf:RDF>
      <cc:Work
         rdf:about="">
        <dc:format>image/svg+xml</dc:format>
        <dc:type
           rdf:resource="http://purl.org/dc/dcmitype/StillImage" />
      </cc:Work>
    </rdf:RDF>
  </metadata>
  <sodipodi:namedview
     pagecolor="#ffffff"
     bordercolor="#666666"
     borderopacity="1"
     objecttolerance="10"
     gridtolerance="10"
     guidetolerance="10"
     inkscape:pageopacity="0"
     inkscape:pageshadow="2"
     inkscape:window-width="1712"
     inkscape:window-height="908"
     id="namedview49"
     showgrid="false"
     inkscape:zoom="0.22425739"
     inkscape:cx="355.98307"
     inkscape:cy="424.7084"
     inkscape:window-x="0"
     inkscape:window-y="27"
     inkscape:window-maximized="1"
     inkscape:current-layer="svg47" />
  <defs
     id="defs15">
    <linearGradient
       id="a">
      <stop
         stop-color="#ad612a"
         offset="0"
         id="stop2" />
      <stop
         stop-color="#ffa569"
         offset="1"
         id="stop4" />
    </linearGradient>
    <linearGradient
       id="b"
       x1="691.17999"
       x2="738.37"
       gradientUnits="userSpaceOnUse">
      <stop
         stop-color="#882f05"
         offset="0"
         id="stop7" />
      <stop
         stop-color="#ff8269"
         offset="1"
         id="stop9" />
    </linearGradient>
    <linearGradient
       id="e"
       x1="691.28998"
       x2="738.14001"
       gradientUnits="userSpaceOnUse"
       xlink:href="#a" />
    <linearGradient
       id="d"
       x1="708.91998"
       x2="713.76001"
       gradientUnits="userSpaceOnUse"
       xlink:href="#a" />
    <linearGradient
       id="c"
       x1="714.53998"
       x2="719.53003"
       gradientUnits="userSpaceOnUse"
       xlink:href="#a" />
  </defs>
  <g
     transform="matrix(14.357,0,0,14.357,-9916.1825,-10169.384)"
     id="g45">
    <path
       transform="matrix(0.98546,-0.16991,0.1849,0.98276,0,0)"
       d="m 567.41,819.11 h 0.74243 v 18.728 H 567.41 Z"
       id="path17"
       inkscape:connector-curvature="0"
       style="fill:#552200;stroke:#000000;stroke-width:0.21422" />
    <path
       transform="matrix(0.98205,0.18863,-0.17366,0.98481,0,0)"
       d="m 828.91,563.05 h 0.74243 v 18.728 H 828.91 Z"
       id="path19"
       inkscape:connector-curvature="0"
       style="fill:#552200;stroke:#000000;stroke-width:0.21422" />
    <path
       transform="matrix(0.87057,-0.49204,0.50524,0.86298,0,0)"
       d="m 249.67,970.34 h 0.74243 v 18.728 H 249.67 Z"
       id="path21"
       inkscape:connector-curvature="0"
       style="fill:#552200;stroke:#000000;stroke-width:0.21422" />
    <path
       transform="matrix(0.93206,-0.3623,0.3669,0.93026,0,0)"
       d="m 403.66,933.77 h 0.73252 v 19.777 H 403.66 Z"
       id="path23"
       inkscape:connector-curvature="0"
       style="fill:#552200;stroke:#000000;stroke-width:0.21867" />
    <path
       transform="matrix(0.99967,0.02555,-0.01033,0.99995,0,0)"
       d="m 720.81,690.05 h 0.74243 v 18.728 H 720.81 Z"
       id="path25"
       inkscape:connector-curvature="0"
       style="fill:#552200;stroke:#000000;stroke-width:0.21422" />
    <path
       transform="matrix(0.94214,0.33521,-0.3317,0.94339,0,0)"
       d="m 914.54,431.34 h 0.7645 v 13.747 H 914.54 Z"
       id="path27"
       inkscape:connector-curvature="0"
       style="fill:#552200;stroke:#000000;stroke-width:0.18624" />
    <path
       transform="matrix(0.86532,0.50121,-0.48798,0.87286,0,0)"
       d="m 977.34,251.86 h 0.74243 v 18.728 H 977.34 Z"
       id="path29"
       inkscape:connector-curvature="0"
       style="fill:#552200;stroke:#000000;stroke-width:0.21422" />
    <path
       transform="matrix(0.94762,-0.31941,0.32293,0.94642,0,0)"
       d="m 440.87,901.11 h 0.7645 v 13.747 H 440.87 Z"
       id="path31"
       inkscape:connector-curvature="0"
       style="fill:#552200;stroke:#000000;stroke-width:0.18624" />
    <path
       transform="matrix(-0.94478,-0.3277,-0.33781,0.94121,0,0)"
       d="m -911.95,449.53 h 0.70906 v 25.425 H -911.95 Z"
       id="path33"
       inkscape:connector-curvature="0"
       style="fill:#552200;stroke:#000000;stroke-width:0.24393" />
    <path
       d="m 709.86,727.1 -18.568,34.264 9.3464,3.1914 13.678,1.8237 14.248,-2.6216 9.5744,-4.3312 -19.6,-32.251 0.84524,-5.4008 -3.3334,1.3813 -1.9902,1.1951 -1.8035,-1.2113 -3.3619,-2.1405 0.96573,6.1014 z"
       id="path35"
       inkscape:connector-curvature="0"
       style="fill:url(#e)" />
    <path
       d="m 693.57,756.81 8.3206,2.8495 12.196,1.5957 12.652,-2.0516 8.6625,-3.9893 2.9635,3.8753 -9.8023,5.1291 -14.248,2.5076 -13.564,-2.2796 -9.5743,-3.1914 2.3936,-4.4452 z"
       id="path37"
       inkscape:connector-curvature="0"
       style="fill:url(#b)" />
    <path
       d="m 708.92,721.11 2.983,18.24 1.8582,-0.63572 -1.4181,-15.551 -3.4231,-2.0538 z"
       id="path39"
       inkscape:connector-curvature="0"
       style="fill:url(#d)" />
    <path
       d="m 715.96,723.26 3.5698,-1.5159 -3.5209,17.702 -1.467,-0.48901"
       id="path41"
       inkscape:connector-curvature="0"
       style="fill:url(#c)" />
    <path
       d="m 708.78,720.91 0.0625,0.25 0.96875,5.9688 -19.125,34.188 10.25,3.5312 h 0.0312 l 13.375,1.875 h 0.125 l 14,-2.3438 h 0.0625 l 0.0312,-0.0312 9.6875,-4.6875 0.3125,-0.15625 -0.1875,-0.3125 -19.781,-32.438 0.96875,-4.9688 0.0625,-0.21875 -0.21875,0.0937 -3.0938,1.3438 -0.28125,0.125 -0.0625,0.0312 -1.375,0.59375 h -0.0312 l -1.2188,-0.0937 -0.84375,-0.5 -0.0937,-0.0625 -0.0625,-0.0312 -0.15625,-0.0937 -3.1875,-1.9375 -0.21875,-0.125 z m 0.3125,0.4375 3.0625,1.9062 1.3125,15.469 -1.4688,0.40625 -2.9062,-17.781 z m 10.219,0.625 -3.4062,17.312 -1.1562,-0.4375 1.4375,-15.5 0.28125,-0.125 v -0.0312 l 2.8438,-1.2188 z m -0.90625,5.7188 19.219,31.531 -9.1562,4.4375 -10.844,-32.031 0.78125,-3.9375 z m -8.4062,0.5625 0.5625,3.3438 -9.9688,32.438 -9.0938,-2.9062 18.5,-32.875 z m 7.5312,3.8438 10.719,31.656 -13.812,2.3125 h -0.1249 v -0.75 h 0.84375 l 0.1875,-0.125 h -1.0312 v -0.625 c 0.0567,0.025 0.12468,0.0509 0.1875,0.0625 0.17045,0.005 0.33006,-0.0195 0.5,-0.0312 0.11944,-0.005 0.0706,10e-4 0.1875,0 l 0.1875,-0.15625 c -0.11761,0.002 -0.0673,-0.005 -0.1875,0 -0.16849,0.0106 -0.33112,0.0618 -0.5,0.0625 -0.12025,-0.0155 -0.22009,-0.119 -0.34375,-0.125 h -0.0312 v -0.75 c 2.1602,-0.0836 3.875,-2.3141 3.875,-5.0312 0,-2.7436 -1.748,-4.9576 -3.9375,-5 v -1.375 h 0.625 l 0.1875,-0.15625 h -0.8125 l -0.0312,-0.90625 h 0.5625 l 0.1875,-0.125 h -0.74995 v -1.1562 h 0.625 l 0.1875,-0.125 h -0.8125 v -0.875 h 0.53125 l 0.1875,-0.125 h -0.71875 v -0.9375 h 0.65625 l 0.21875,-0.125 h -0.875 v -0.96875 h 0.59375 l 0.1875,-0.125 h -0.7812 l -0.0312,-1.0625 h 0.65625 l 0.1875,-0.125 h -0.8437 v -0.90625 h 0.5625 l 0.21875,-0.15625 h -0.7812 v -1.125 h 0.625 l 0.18705,-0.1563 h -0.8125 v -0.84375 h 0.53125 l 0.1875,-0.125 h -0.71875 v -0.9375 h 0.65625 l 0.21875,-0.125 h -0.875 v -0.96875 h 0.59375 l 0.1875,-0.15625 h -0.7812 l -0.0312,-0.75 0.9375,0.0625 h 0.0312 l 0.8125,0.3125 0.125,0.0312 0.0312,-0.125 1.4375,-7.3438 z m -6.875,0.0312 1.1562,7.1562 0.0312,0.125 0.125,-0.0312 1.125,-0.3125 0.84375,0.0625 v 0.78125 h -0.6875 l -0.1875,0.15625 h 0.875 v 0.96875 h -0.625 l -0.1875,0.125 h 0.8125 v 0.9375 h -0.75 l -0.1875,0.125 h 0.9375 l 0.0312,0.84375 h -0.6875 l -0.21875,0.15625 h 0.90625 v 1.125 h -0.71875 l -0.21865,0.15625 h 0.9375 v 0.90625 h -0.65625 l -0.1875,0.125 h 0.84375 v 1.0625 h -0.6875 l -0.1875,0.125 h 0.875 v 0.96875 h -0.625 l -0.1875,0.125 h 0.8125 l 0.0312,0.9375 h -0.78125 l -0.1875,0.125 h 0.96875 v 0.875 h -0.6875 l -0.21875,0.125 h 0.90625 v 1.1562 h -0.75 l -0.1875,0.125 h 0.9375 v 0.90625 h -0.65625 l -0.21875,0.15625 h 0.875 l 0.0312,1.375 c -2.1454,0.1038 -3.875,2.2961 -3.875,5 0,2.7171 1.7461,4.9476 3.9062,5.0312 l 0.0312,0.75 h -0.71875 l -0.1875,0.125 h 0.90625 v 0.6875 h -0.65625 l -0.1875,0.125 h 0.84375 v 0.71875 l -13.031,-1.8438 -0.25,-0.0937 9.8438,-31.969 z"
       id="path43"
       inkscape:connector-curvature="0" />
  </g>
</svg>
