<?xml version="1.0" encoding="UTF-8"?>
<svg viewBox="0 0 744.09448819 1052.3622047" xmlns="http://www.w3.org/2000/svg" xmlns:xlink="http://www.w3.org/1999/xlink">
 <defs>
  <linearGradient id="a">
   <stop stop-color="#ad612a" offset="0"/>
   <stop stop-color="#ffa569" offset="1"/>
  </linearGradient>
  <linearGradient id="b" x1="691.18" x2="738.37" gradientUnits="userSpaceOnUse">
   <stop stop-color="#882f05" offset="0"/>
   <stop stop-color="#ff8269" offset="1"/>
  </linearGradient>
  <linearGradient id="e" x1="691.29" x2="738.14" gradientUnits="userSpaceOnUse" xlink:href="#a"/>
  <linearGradient id="d" x1="708.92" x2="713.76" gradientUnits="userSpaceOnUse" xlink:href="#a"/>
  <linearGradient id="c" x1="714.54" x2="719.53" gradientUnits="userSpaceOnUse" xlink:href="#a"/>
 </defs>
 <g transform="matrix(14.357 0 0 14.357 -9891.2 -10057)">
  <path transform="matrix(.98546,-.16991,.1849,.98276,0,0)" d="m567.41 819.11h0.74243v18.728h-0.74243z" fill="#520" stroke="#000" stroke-width=".21422"/>
  <path transform="matrix(.98205,.18863,-.17366,.98481,0,0)" d="m828.91 563.05h0.74243v18.728h-0.74243z" fill="#520" stroke="#000" stroke-width=".21422"/>
  <path transform="matrix(.87057,-.49204,.50524,.86298,0,0)" d="m249.67 970.34h0.74243v18.728h-0.74243z" fill="#520" stroke="#000" stroke-width=".21422"/>
  <path transform="matrix(.93206,-.3623,.3669,.93026,0,0)" d="m403.66 933.77h0.73252v19.777h-0.73252z" fill="#520" stroke="#000" stroke-width=".21867"/>
  <path transform="matrix(.99967,.02555,-.01033,.99995,0,0)" d="m720.81 690.05h0.74243v18.728h-0.74243z" fill="#520" stroke="#000" stroke-width=".21422"/>
  <path transform="matrix(.94214,.33521,-.3317,.94339,0,0)" d="m914.54 431.34h0.7645v13.747h-0.7645z" fill="#520" stroke="#000" stroke-width=".18624"/>
  <path transform="matrix(.86532,.50121,-.48798,.87286,0,0)" d="m977.34 251.86h0.74243v18.728h-0.74243z" fill="#520" stroke="#000" stroke-width=".21422"/>
  <path transform="matrix(.94762,-.31941,.32293,.94642,0,0)" d="m440.87 901.11h0.7645v13.747h-0.7645z" fill="#520" stroke="#000" stroke-width=".18624"/>
  <path transform="matrix(-.94478,-.3277,-.33781,.94121,0,0)" d="m-911.95 449.53h0.70906v25.425h-0.70906z" fill="#520" stroke="#000" stroke-width=".24393"/>
  <path d="m709.86 727.1-18.568 34.264 9.3464 3.1914 13.678 1.8237 14.248-2.6216 9.5744-4.3312-19.6-32.251 0.84524-5.4008-3.3334 1.3813-1.9902 1.1951-1.8035-1.2113-3.3619-2.1405 0.96573 6.1014z" fill="url(#e)"/>
  <path d="m693.57 756.81 8.3206 2.8495 12.196 1.5957 12.652-2.0516 8.6625-3.9893 2.9635 3.8753-9.8023 5.1291-14.248 2.5076-13.564-2.2796-9.5743-3.1914 2.3936-4.4452z" fill="url(#b)"/>
  <path d="m708.92 721.11 2.983 18.24 1.8582-0.63572-1.4181-15.551-3.4231-2.0538z" fill="url(#d)"/>
  <path d="m715.96 723.26 3.5698-1.5159-3.5209 17.702-1.467-0.48901" fill="url(#c)"/>
  <path d="m708.78 720.91 0.0625 0.25 0.96875 5.9688-19.125 34.188 10.25 3.5312h0.0312l13.375 1.875h0.125l14-2.3438h0.0625l0.0312-0.0312 9.6875-4.6875 0.3125-0.15625-0.1875-0.3125-19.781-32.438 0.96875-4.9688 0.0625-0.21875-0.21875 0.0937-3.0938 1.3438-0.28125 0.125-0.0625 0.0312-1.375 0.59375h-0.0312l-1.2188-0.0937-0.84375-0.5-0.0937-0.0625-0.0625-0.0312-0.15625-0.0937-3.1875-1.9375-0.21875-0.125zm0.3125 0.4375 3.0625 1.9062 1.3125 15.469-1.4688 0.40625-2.9062-17.781zm10.219 0.625-3.4062 17.312-1.1562-0.4375 1.4375-15.5 0.28125-0.125v-0.0312l2.8438-1.2188zm-0.90625 5.7188 19.219 31.531-9.1562 4.4375-10.844-32.031 0.78125-3.9375zm-8.4062 0.5625 0.5625 3.3438-9.9688 32.438-9.0938-2.9062 18.5-32.875zm7.5312 3.8438 10.719 31.656-13.812 2.3125h-0.1249v-0.75h0.84375l0.1875-0.125h-1.0312v-0.625c0.0567 0.025 0.12468 0.0509 0.1875 0.0625 0.17045 5e-3 0.33006-0.0195 0.5-0.0312 0.11944-5e-3 0.0706 1e-3 0.1875 0l0.1875-0.15625c-0.11761 2e-3 -0.0673-5e-3 -0.1875 0-0.16849 0.0106-0.33112 0.0618-0.5 0.0625-0.12025-0.0155-0.22009-0.119-0.34375-0.125h-0.0312v-0.75c2.1602-0.0836 3.875-2.3141 3.875-5.0312 0-2.7436-1.748-4.9576-3.9375-5v-1.375h0.625l0.1875-0.15625h-0.8125l-0.0312-0.90625h0.5625l0.1875-0.125h-0.74995v-1.1562h0.625l0.1875-0.125h-0.8125v-0.875h0.53125l0.1875-0.125h-0.71875v-0.9375h0.65625l0.21875-0.125h-0.875v-0.96875h0.59375l0.1875-0.125h-0.7812l-0.0312-1.0625h0.65625l0.1875-0.125h-0.8437v-0.90625h0.5625l0.21875-0.15625h-0.7812v-1.125h0.625l0.18705-0.1563h-0.8125v-0.84375h0.53125l0.1875-0.125h-0.71875v-0.9375h0.65625l0.21875-0.125h-0.875v-0.96875h0.59375l0.1875-0.15625h-0.7812l-0.0312-0.75 0.9375 0.0625h0.0312l0.8125 0.3125 0.125 0.0312 0.0312-0.125 1.4375-7.3438zm-6.875 0.0312 1.1562 7.1562 0.0312 0.125 0.125-0.0312 1.125-0.3125 0.84375 0.0625v0.78125h-0.6875l-0.1875 0.15625h0.875v0.96875h-0.625l-0.1875 0.125h0.8125v0.9375h-0.75l-0.1875 0.125h0.9375l0.0312 0.84375h-0.6875l-0.21875 0.15625h0.90625v1.125h-0.71875l-0.21865 0.15625h0.9375v0.90625h-0.65625l-0.1875 0.125h0.84375v1.0625h-0.6875l-0.1875 0.125h0.875v0.96875h-0.625l-0.1875 0.125h0.8125l0.03125 0.9375h-0.78125l-0.1875 0.125h0.96875v0.875h-0.6875l-0.21875 0.125h0.90625v1.1562h-0.75l-0.1875 0.125h0.9375v0.90625h-0.65625l-0.21875 0.15625h0.875l0.0312 1.375c-2.1454 0.1038-3.875 2.2961-3.875 5 0 2.7171 1.7461 4.9476 3.9062 5.0312l0.0312 0.75h-0.71875l-0.1875 0.125h0.90625v0.6875h-0.65625l-0.1875 0.125h0.84375v0.71875l-13.031-1.8438-0.25-0.0937 9.8438-31.969z"/>
 </g>
</svg>
