<?xml version="1.0" encoding="UTF-8"?>
<svg viewBox="0 0 800 600" xmlns="http://www.w3.org/2000/svg">
 <defs>
  <linearGradient id="k" x1=".54" x2=".54" y1=".03906" y2=".96094"/>
  <linearGradient id="l" x1=".34" x2=".58" y1=".007813" y2=".007813"/>
  <linearGradient id="j" x1=".7" x2=".16" y1=".71875" y2=".36719"/>
  <linearGradient id="o" x1="-.033383" x2="1.0333" y1=".5" y2=".5"/>
  <linearGradient id="n" x1="-.023665" x2="1.0237" y1=".49998" y2=".49998"/>
  <linearGradient id="m" x1="-.004417" x2="1.0044" y1=".49998" y2=".49998"/>
  <linearGradient id="r" x1="1.0044" x2="-.004437" y1=".49997" y2=".49997"/>
  <linearGradient id="q" x1="1.0333" x2="-.033355" y1=".50002" y2=".50002"/>
  <linearGradient id="p" x1="1.0237" x2="-.023647" y1=".49997" y2=".49997"/>
 </defs>
 <g fill-rule="evenodd">
  <g stroke-linejoin="round" stroke-width="11.2">
   <path d="m15.714 243.79c27.619-30.952 109.74-64.527 142.86-82.857 93.964-52.004 208.1-129.05 271.43-150 0 34.762 11.946 59.439 28.571 91.429 38.287 73.67 86.304 145.68 142.86 204.29 35.352 36.634 88.571 54.286 132.86 81.429-70.952 37.619-141.9 75.238-212.86 112.86-8.5715-11.429-52.937-7.0018-72.857-17.143-6.2705-3.1922-15.238-10.952-17.143-18.571-0.95236 10.952 2.911 21.268 8.5714 28.571 9.1015 11.744 38.571 9.0476 47.143 24.286-80.952 38.095-161.9 76.19-242.86 114.29 4.7619-19.524 3.2717-37.316-7.1428-45.714-19.109-15.411-48.058-20.424-64.286-38.571-28.058-31.377-52.147-70.793-68.571-110-13.099-31.27-6.051-70.831-20-101.43-15.575-34.164-32.857-70.476-68.571-92.857z" fill="#f0ce64" stroke="#803600"/>
   <path d="m445.19 505.84c12.118 4.216 24.938 1.0909 30.906 11.594-12.645 5.8902-20.855 7.891-33.5 13.781 1.7623-12.673 4.3547-17.203 2.5938-25.375zm2.6562-24.188c-6.2705-3.1922-15.22-10.975-17.125-18.594-0.95239 10.952 2.9021 21.29 8.5625 28.594 9.1015 11.744 38.585 9.0432 47.156 24.281-80.952 38.095-161.92 76.186-242.88 114.28 4.7619-19.524 3.2895-37.32-7.125-45.719-19.109-15.411-48.054-20.415-64.281-38.562-28.058-31.377-52.169-70.793-68.594-110-13.099-31.27-6.051-70.84-20-101.44-15.575-34.164-32.848-70.463-68.562-92.844 27.619-30.952 109.72-64.544 142.84-82.875 33.121-18.33 20.149-18.202 31.031-9.2188 10.882 8.9837 23.724 17.667 27.625 29.25 8.3769 24.875-4.1764 13.809-6.9688 33.156-2.7923 19.347 3.4913 18.998-4.1875 44.219s-26.531 25.594-26.531 56.688 8.0323 43.189 26.531 67.719 23.385 41.085 47.469 30.375 20.572-55.63 48.844-73.25 37.374-14.493 64.25 2.7812 31.065 36.977 43.281 66.344c12.216 29.366 1.025 38.687 5.5625 51.125 2.538 6.957 6.3294 7.8838 13.531 12.375-1.1169-4.162 0.7229-7.1102 1.125-11.688 1.8615 7.3704 10.622 14.881 16.75 17.969 19.468 9.8101 21.608 15.172 1.6875 5.0312z" fill="#1590db" fill-opacity=".415"/>
  </g>
  <path d="m419.67 21.677c-4.7958 1.7919-9.7917 3.8343-15.057 6.1367 2.6056 12.097 6.082 26.63-4.123 26.21-15.799-0.65159-22.636-5.2662-32.556-8.3435-53.313 27.943-118.88 68.978-179.37 103.48 10.882 8.9837 23.708 17.65 27.609 29.233 8.3769 24.875-4.171 13.815-6.9633 33.162s3.4948 19.006-4.1841 44.227c-7.6788 25.221-26.54 25.588-26.54 56.682s8.0409 43.186 26.54 67.716 23.377 41.091 47.46 30.381c24.084-10.71 20.593-55.628 48.865-73.248s37.351-14.493 64.227 2.7812 31.06 36.959 43.276 66.325 1.0515 38.712 5.589 51.149c2.5381 6.957 6.3029 7.8582 13.505 12.349-1.1169-4.162 0.75269-7.107 1.1548-11.684 1.8615 7.3704 10.608 14.899 16.736 17.987 19.468 9.8102 62.844 5.5105 71.221 16.566 65.085-34.157 130.16-68.293 195.25-102.45-0.16455-1.5514-0.24719-3.0771-0.48865-4.6555-0.54742-3.5786-1.2675-7.1993-2.1378-10.853-39.737-21.654-83.897-38.658-114.44-69.983-55.27-56.692-102.21-126.35-139.63-197.62-14.424-27.471-25.178-49.415-27.426-77.51-3.1875-3.1253-6.0539-5.8467-8.5208-8.0412zm25.195 483.75c1.761 8.1719-0.82376 12.692-2.586 25.365 12.645-5.8902 20.844-7.8857 33.489-13.776-5.9685-10.503-18.785-7.3736-30.903-11.59z" fill="#7f7f00" stroke="#a56c00" stroke-width="6.223"/>
  <g transform="matrix(.06633 -.015876 .0052402 .021893 457.55 338.66)">
   <g stroke-width="1.25">
    <path d="m220.19 24.001c-8.0925 0.5713-72.664 106.72-87.156 176.56-21.528 125.42-31.826 285.19-50.938 410.97-5.671 29.099-3.2978 64.859 3.8125 82.344 7.2306 23.698 27.771 48.489 52.344 62.812 29.993 19.426 52.515 18.901 81.75 19.281 0.15344 0.094604 0.35416 0.11829 0.53125 0 30.618-0.034363 53.486-1.238 81.75-19.281 24.573-14.323 45.113-39.114 52.344-62.812 7.1102-17.485 9.4835-53.244 3.8125-82.344-19.112-125.78-29.41-285.55-50.938-410.97-14.492-69.847-79.064-175.99-87.156-176.56-0.027466-0.001942-0.11758-0.002731-0.15625 0z" fill="url(#k)"/>
    <path d="m220.19 22.118c-8.0925 0.5713-72.664 106.72-87.156 176.56-21.528 125.42-31.826 285.19-50.938 410.97-5.671 29.099-3.2978 64.859 3.8125 82.344 7.2306 23.698 27.771 48.489 52.344 62.812 29.993 19.426 52.515 18.901 81.75 19.281 0.15344 0.094604 0.35416 0.11829 0.53125 0 30.618-0.034363 53.486-1.238 81.75-19.281 24.573-14.323 45.113-39.114 52.344-62.812 7.1102-17.485 9.4835-53.244 3.8125-82.344-19.112-125.78-29.41-285.55-50.938-410.97-14.492-69.847-79.064-175.99-87.156-176.56-0.027466-0.001942-0.11758-0.002731-0.15625 0z" fill="url(#j)"/>
   </g>
   <path d="m190.56 772.75l-9.7812 223.44h84.875l-14.875-223.44h-60.219z" fill="url(#l)" stroke-opacity=".464" stroke-width="1.381"/>
  </g>
 </g>
 <text transform="matrix(.75472 -.86672 .70056 .52047 0 0)" x="-17.457268" y="844.052" fill="#7f0000" font-family="Balthazar" font-size="165.81px" xml:space="preserve"><tspan x="-17.457268" y="844.052">X</tspan>
</text>
 <g fill-rule="evenodd">
  <g stroke="#674605" stroke-linecap="round">
   <g transform="matrix(-.43689 0 0 .55035 379.73 150.97)">
    <path d="m87.143 93.791c9.4643-7.1428 16.964-21.964 37.857-28.571 20.893-6.6071 26.786-5.5357 45.714 2.1429 18.929 7.6786 22.5 21.429 30 28.571" fill="url(#m)" stroke-width="3.25"/>
    <g stroke-linejoin="round">
     <path d="m60.136 95.847c8.1312-6.0782 8.585-16.425 20.982-21.959 12.397-5.5336 19.564-5.9342 28.607-0.17543 9.0421 5.7588 14.328 15.643 19.104 20.857" fill="url(#n)" stroke-width="3.25"/>
     <path d="m164.18 94.518c-6.6384-4.7181-7.2017-13.008-17.251-17.207-10.049-4.1991-15.805-4.3824-22.946 0.4104-7.1409 4.7928-11.19 12.822-14.92 17.096" fill="url(#o)" stroke-width="3.678"/>
    </g>
   </g>
   <g transform="matrix(-.43689 0 0 .55035 416.27 161.36)">
    <path d="m87.143 93.791c9.4643-7.1428 16.964-21.964 37.857-28.571 20.893-6.6071 26.786-5.5357 45.714 2.1429 18.929 7.6786 22.5 21.429 30 28.571" fill="url(#m)" stroke-width="3.25"/>
    <g stroke-linejoin="round">
     <path d="m60.136 95.847c8.1312-6.0782 8.585-16.425 20.982-21.959 12.397-5.5336 19.564-5.9342 28.607-0.17543 9.0421 5.7588 14.328 15.643 19.104 20.857" fill="url(#n)" stroke-width="3.25"/>
     <path d="m164.18 94.518c-6.6384-4.7181-7.2017-13.008-17.251-17.207-10.049-4.1991-15.805-4.3824-22.946 0.4104-7.1409 4.7928-11.19 12.822-14.92 17.096" fill="url(#o)" stroke-width="3.678"/>
    </g>
   </g>
   <g transform="matrix(-.43689 0 0 .55035 343.41 157.07)">
    <path d="m87.143 93.791c9.4643-7.1428 16.964-21.964 37.857-28.571 20.893-6.6071 26.786-5.5357 45.714 2.1429 18.929 7.6786 22.5 21.429 30 28.571" fill="url(#m)" stroke-width="3.25"/>
    <g stroke-linejoin="round">
     <path d="m60.136 95.847c8.1312-6.0782 8.585-16.425 20.982-21.959 12.397-5.5336 19.564-5.9342 28.607-0.17543 9.0421 5.7588 14.328 15.643 19.104 20.857" fill="url(#n)" stroke-width="3.25"/>
     <path d="m164.18 94.518c-6.6384-4.7181-7.2017-13.008-17.251-17.207-10.049-4.1991-15.805-4.3824-22.946 0.4104-7.1409 4.7928-11.19 12.822-14.92 17.096" fill="url(#o)" stroke-width="3.678"/>
    </g>
   </g>
   <g transform="matrix(-.43689 0 0 .55035 385.55 164.93)">
    <path d="m87.143 93.791c9.4643-7.1428 16.964-21.964 37.857-28.571 20.893-6.6071 26.786-5.5357 45.714 2.1429 18.929 7.6786 22.5 21.429 30 28.571" fill="url(#m)" stroke-width="3.25"/>
    <g stroke-linejoin="round">
     <path d="m60.136 95.847c8.1312-6.0782 8.585-16.425 20.982-21.959 12.397-5.5336 19.564-5.9342 28.607-0.17543 9.0421 5.7588 14.328 15.643 19.104 20.857" fill="url(#n)" stroke-width="3.25"/>
     <path d="m164.18 94.518c-6.6384-4.7181-7.2017-13.008-17.251-17.207-10.049-4.1991-15.805-4.3824-22.946 0.4104-7.1409 4.7928-11.19 12.822-14.92 17.096" fill="url(#o)" stroke-width="3.678"/>
    </g>
   </g>
   <g transform="matrix(-.43689 0 0 .55035 352.7 169.93)">
    <path d="m87.143 93.791c9.4643-7.1428 16.964-21.964 37.857-28.571 20.893-6.6071 26.786-5.5357 45.714 2.1429 18.929 7.6786 22.5 21.429 30 28.571" fill="url(#m)" stroke-width="3.25"/>
    <g stroke-linejoin="round">
     <path d="m60.136 95.847c8.1312-6.0782 8.585-16.425 20.982-21.959 12.397-5.5336 19.564-5.9342 28.607-0.17543 9.0421 5.7588 14.328 15.643 19.104 20.857" fill="url(#n)" stroke-width="3.25"/>
     <path d="m164.18 94.518c-6.6384-4.7181-7.2017-13.008-17.251-17.207-10.049-4.1991-15.805-4.3824-22.946 0.4104-7.1409 4.7928-11.19 12.822-14.92 17.096" fill="url(#o)" stroke-width="3.678"/>
    </g>
   </g>
   <g transform="matrix(-.43689 0 0 .55035 509.12 406.36)">
    <path d="m87.143 93.791c9.4643-7.1428 16.964-21.964 37.857-28.571 20.893-6.6071 26.786-5.5357 45.714 2.1429 18.929 7.6786 22.5 21.429 30 28.571" fill="url(#m)" stroke-width="3.25"/>
    <g stroke-linejoin="round">
     <path d="m60.136 95.847c8.1312-6.0782 8.585-16.425 20.982-21.959 12.397-5.5336 19.564-5.9342 28.607-0.17543 9.0421 5.7588 14.328 15.643 19.104 20.857" fill="url(#n)" stroke-width="3.25"/>
     <path d="m164.18 94.518c-6.6384-4.7181-7.2017-13.008-17.251-17.207-10.049-4.1991-15.805-4.3824-22.946 0.4104-7.1409 4.7928-11.19 12.822-14.92 17.096" fill="url(#o)" stroke-width="3.678"/>
    </g>
   </g>
   <path d="m508.57 468.69c-4.1349-3.9311-7.4115-12.088-16.539-15.724-9.1279-3.6362-11.702-3.0466-19.972 1.1794-8.2697 4.2259-9.83 11.793-13.107 15.724" fill="url(#r)" stroke-width="1.594"/>
   <g stroke-linejoin="round">
    <path d="m477.16 469.82c-3.5525-3.3451-3.7507-9.0397-9.1669-12.085-5.4162-3.0454-8.5476-3.2659-12.498-0.096558-3.9504 3.1694-6.26 8.609-8.3466 11.479" fill="url(#p)" stroke-width="1.594"/>
    <path d="m468.52 469.09c2.9002-2.5966 3.1463-7.1589 7.5367-9.4699s6.9051-2.4119 10.025 0.22586c3.1198 2.6377 4.8888 7.0564 6.5185 9.4085" fill="url(#q)" stroke-width="1.803"/>
   </g>
   <path d="m379.28 225.83c-4.1349-3.9311-7.4115-12.088-16.539-15.724-9.1279-3.6362-11.702-3.0466-19.972 1.1794-8.2697 4.2259-9.83 11.793-13.107 15.724" fill="url(#r)" stroke-width="1.594"/>
   <g stroke-linejoin="round">
    <path d="m347.87 226.96c-3.5525-3.3451-3.7507-9.0397-9.1669-12.085-5.4162-3.0454-8.5476-3.2659-12.498-0.096558-3.9504 3.1694-6.26 8.609-8.3466 11.479" fill="url(#p)" stroke-width="1.594"/>
    <path d="m339.24 226.23c2.9002-2.5966 3.1463-7.1589 7.5367-9.4699s6.9051-2.4119 10.025 0.22586c3.1198 2.6377 4.8888 7.0564 6.5185 9.4085" fill="url(#q)" stroke-width="1.803"/>
   </g>
  </g>
  <g transform="matrix(.06633 -.015876 .0052402 .021893 448.08 279.36)">
   <g stroke-width="1.25">
    <path d="m220.19 24.001c-8.0925 0.5713-72.664 106.72-87.156 176.56-21.528 125.42-31.826 285.19-50.938 410.97-5.671 29.099-3.2978 64.859 3.8125 82.344 7.2306 23.698 27.771 48.489 52.344 62.812 29.993 19.426 52.515 18.901 81.75 19.281 0.15344 0.094604 0.35416 0.11829 0.53125 0 30.618-0.034363 53.486-1.238 81.75-19.281 24.573-14.323 45.113-39.114 52.344-62.812 7.1102-17.485 9.4835-53.244 3.8125-82.344-19.112-125.78-29.41-285.55-50.938-410.97-14.492-69.847-79.064-175.99-87.156-176.56-0.027466-0.001942-0.11758-0.002731-0.15625 0z" fill="url(#k)"/>
    <path d="m220.19 22.118c-8.0925 0.5713-72.664 106.72-87.156 176.56-21.528 125.42-31.826 285.19-50.938 410.97-5.671 29.099-3.2978 64.859 3.8125 82.344 7.2306 23.698 27.771 48.489 52.344 62.812 29.993 19.426 52.515 18.901 81.75 19.281 0.15344 0.094604 0.35416 0.11829 0.53125 0 30.618-0.034363 53.486-1.238 81.75-19.281 24.573-14.323 45.113-39.114 52.344-62.812 7.1102-17.485 9.4835-53.244 3.8125-82.344-19.112-125.78-29.41-285.55-50.938-410.97-14.492-69.847-79.064-175.99-87.156-176.56-0.027466-0.001942-0.11758-0.002731-0.15625 0z" fill="url(#j)"/>
   </g>
   <path d="m190.56 772.75l-9.7812 223.44h84.875l-14.875-223.44h-60.219z" fill="url(#l)" stroke-opacity=".464" stroke-width="1.381"/>
  </g>
 </g>
 <g fill-rule="evenodd">
  <g transform="matrix(.06633 -.015876 .0052402 .021893 574.69 158.66)">
   <g stroke-width="1.25">
    <path d="m-2432.2 5245.6c-8.0928 0.57129-72.665 106.72-87.156 176.56-21.528 125.42-31.826 285.19-50.938 410.97-5.6709 29.1-3.2978 64.858 3.8125 82.344 7.2305 23.698 27.77 48.489 52.344 62.812 29.993 19.426 52.515 18.901 81.75 19.281 0.15332 0.094727 0.354 0.11816 0.53125 0 30.618-0.03418 53.486-1.2378 81.75-19.281 24.573-14.323 45.113-39.114 52.344-62.812 7.1099-17.485 9.4834-53.244 3.8125-82.344-19.112-125.77-29.41-285.55-50.938-410.97-14.492-69.847-79.064-175.99-87.156-176.56-0.027832-0.001953-0.11768-0.00293-0.15625 0z" fill="url(#k)"/>
    <path d="m-2432.2 5243.7c-8.0928 0.57129-72.665 106.72-87.156 176.56-21.528 125.42-31.826 285.19-50.938 410.97-5.6709 29.1-3.2978 64.859 3.8125 82.344 7.2305 23.698 27.77 48.489 52.344 62.812 29.993 19.427 52.515 18.901 81.75 19.281 0.15332 0.094727 0.354 0.11865 0.53125 0 30.618-0.03418 53.486-1.2378 81.75-19.281 24.573-14.323 45.113-39.114 52.344-62.812 7.1099-17.485 9.4834-53.244 3.8125-82.344-19.112-125.77-29.41-285.55-50.938-410.97-14.492-69.847-79.064-175.99-87.156-176.56-0.027832-0.001465-0.11768-0.002441-0.15625 0z" fill="url(#j)"/>
   </g>
   <path d="m-2461.8 5994.3l-9.7812 223.44h84.875l-14.875-223.44h-60.219z" fill="url(#l)" stroke-opacity=".464" stroke-width="1.381"/>
  </g>
  <g transform="matrix(.078902 -.02104 .0062334 .029014 564.14 173.98)">
   <g stroke-width="1.25">
    <path d="m-1963.6 3831.8c-8.0925 0.57129-72.664 106.72-87.156 176.56-21.528 125.42-31.826 285.19-50.938 410.97-5.6709 29.1-3.2976 64.858 3.8125 82.344 7.2307 23.698 27.771 48.489 52.344 62.812 29.993 19.426 52.515 18.901 81.75 19.281 0.15344 0.094727 0.35413 0.11816 0.53125 0 30.618-0.03418 53.486-1.2378 81.75-19.281 24.573-14.323 45.113-39.114 52.344-62.812 7.1102-17.485 9.4835-53.244 3.8125-82.344-19.112-125.77-29.41-285.55-50.938-410.97-14.492-69.847-79.064-175.99-87.156-176.56-0.027466-0.001953-0.11755-0.002686-0.15625 0z" fill="url(#k)"/>
    <path d="m-1963.6 3829.9c-8.0925 0.57129-72.664 106.72-87.156 176.56-21.528 125.42-31.826 285.19-50.938 410.97-5.6709 29.1-3.2976 64.859 3.8125 82.344 7.2307 23.698 27.771 48.489 52.344 62.812 29.993 19.427 52.515 18.901 81.75 19.281 0.15344 0.094727 0.35413 0.11865 0.53125 0 30.618-0.03418 53.486-1.2378 81.75-19.281 24.573-14.323 45.113-39.114 52.344-62.812 7.1102-17.485 9.4835-53.244 3.8125-82.344-19.112-125.77-29.41-285.55-50.938-410.97-14.492-69.847-79.064-175.99-87.156-176.56-0.027466-0.001953-0.11755-0.002686-0.15625 0z" fill="url(#j)"/>
   </g>
   <path d="m-1993.2 4580.6l-9.7812 223.44h84.875l-14.875-223.44h-60.219z" fill="url(#l)" stroke-opacity=".464" stroke-width="1.381"/>
  </g>
  <g transform="matrix(.077959 -.026302 .010202 .025083 583.61 162.1)">
   <g stroke-width="1.25">
    <path d="m-2173.3 3750.7c-8.0928 0.57129-72.665 106.72-87.156 176.56-21.528 125.42-31.826 285.19-50.938 410.97-5.6709 29.1-3.2978 64.859 3.8125 82.344 7.2305 23.698 27.77 48.489 52.344 62.812 29.993 19.427 52.515 18.901 81.75 19.281 0.15332 0.094727 0.354 0.11865 0.53125 0 30.618-0.03418 53.486-1.2378 81.75-19.281 24.573-14.323 45.113-39.114 52.344-62.812 7.1102-17.485 9.4835-53.244 3.8125-82.344-19.112-125.77-29.41-285.55-50.937-410.97-14.492-69.847-79.064-175.99-87.156-176.56-0.027588-0.001953-0.11768-0.002686-0.15625 0z" fill="url(#k)"/>
    <path d="m-2173.3 3748.8c-8.0928 0.57129-72.665 106.72-87.156 176.56-21.528 125.42-31.826 285.19-50.938 410.97-5.6709 29.099-3.2978 64.858 3.8125 82.344 7.2305 23.698 27.77 48.489 52.344 62.812 29.993 19.426 52.515 18.901 81.75 19.281 0.15332 0.094727 0.354 0.11816 0.53125 0 30.618-0.03418 53.486-1.2378 81.75-19.281 24.573-14.323 45.113-39.114 52.344-62.812 7.1102-17.485 9.4835-53.245 3.8125-82.344-19.112-125.77-29.41-285.55-50.937-410.97-14.492-69.847-79.064-175.99-87.156-176.56-0.027588-0.001953-0.11768-0.002686-0.15625 0z" fill="url(#j)"/>
   </g>
   <path d="m-2202.9 4499.4l-9.7812 223.44h84.875l-14.875-223.44h-60.219z" fill="url(#l)" stroke-opacity=".464" stroke-width="1.381"/>
  </g>
 </g>
 <g fill-rule="evenodd">
  <g transform="matrix(.078902 -.02104 .0062334 .029014 437.53 294.67)">
   <g stroke-width="1.25">
    <path d="m220.19 24.001c-8.0925 0.5713-72.664 106.72-87.156 176.56-21.528 125.42-31.826 285.19-50.938 410.97-5.671 29.099-3.2978 64.859 3.8125 82.344 7.2306 23.698 27.771 48.489 52.344 62.812 29.993 19.426 52.515 18.901 81.75 19.281 0.15344 0.094604 0.35416 0.11829 0.53125 0 30.618-0.034363 53.486-1.238 81.75-19.281 24.573-14.323 45.113-39.114 52.344-62.812 7.1102-17.485 9.4835-53.244 3.8125-82.344-19.112-125.78-29.41-285.55-50.938-410.97-14.492-69.847-79.064-175.99-87.156-176.56-0.027466-0.001942-0.11758-0.002731-0.15625 0z" fill="url(#k)"/>
    <path d="m220.19 22.118c-8.0925 0.5713-72.664 106.72-87.156 176.56-21.528 125.42-31.826 285.19-50.938 410.97-5.671 29.099-3.2978 64.859 3.8125 82.344 7.2306 23.698 27.771 48.489 52.344 62.812 29.993 19.426 52.515 18.901 81.75 19.281 0.15344 0.094604 0.35416 0.11829 0.53125 0 30.618-0.034363 53.486-1.238 81.75-19.281 24.573-14.323 45.113-39.114 52.344-62.812 7.1102-17.485 9.4835-53.244 3.8125-82.344-19.112-125.78-29.41-285.55-50.938-410.97-14.492-69.847-79.064-175.99-87.156-176.56-0.027466-0.001942-0.11758-0.002731-0.15625 0z" fill="url(#j)"/>
   </g>
   <path d="m190.56 772.75l-9.7812 223.44h84.875l-14.875-223.44h-60.219z" fill="url(#l)" stroke-opacity=".464" stroke-width="1.381"/>
  </g>
  <g transform="matrix(.077959 -.026302 .010202 .025083 457 282.8)">
   <g stroke-width="1.25">
    <path d="m220.19 24.001c-8.0925 0.5713-72.664 106.72-87.156 176.56-21.528 125.42-31.826 285.19-50.938 410.97-5.671 29.099-3.2978 64.859 3.8125 82.344 7.2306 23.698 27.771 48.489 52.344 62.812 29.993 19.426 52.515 18.901 81.75 19.281 0.15344 0.094604 0.35416 0.11829 0.53125 0 30.618-0.034363 53.486-1.238 81.75-19.281 24.573-14.323 45.113-39.114 52.344-62.812 7.1102-17.485 9.4835-53.244 3.8125-82.344-19.112-125.78-29.41-285.55-50.938-410.97-14.492-69.847-79.064-175.99-87.156-176.56-0.027466-0.001942-0.11758-0.002731-0.15625 0z" fill="url(#k)"/>
    <path d="m220.19 22.118c-8.0925 0.5713-72.664 106.72-87.156 176.56-21.528 125.42-31.826 285.19-50.938 410.97-5.671 29.099-3.2978 64.859 3.8125 82.344 7.2306 23.698 27.771 48.489 52.344 62.812 29.993 19.426 52.515 18.901 81.75 19.281 0.15344 0.094604 0.35416 0.11829 0.53125 0 30.618-0.034363 53.486-1.238 81.75-19.281 24.573-14.323 45.113-39.114 52.344-62.812 7.1102-17.485 9.4835-53.244 3.8125-82.344-19.112-125.78-29.41-285.55-50.938-410.97-14.492-69.847-79.064-175.99-87.156-176.56-0.027466-0.001942-0.11758-0.002731-0.15625 0z" fill="url(#j)"/>
   </g>
   <path d="m190.56 772.75l-9.7812 223.44h84.875l-14.875-223.44h-60.219z" fill="url(#l)" stroke-opacity=".464" stroke-width="1.381"/>
  </g>
 </g>
 <g fill-rule="evenodd">
  <g transform="matrix(.06633 -.015876 .0052402 .021893 421.12 348.66)">
   <g stroke-width="1.25">
    <path d="m237.25-192c-8.0925 0.5713-72.664 106.72-87.156 176.56-21.528 125.42-31.826 285.19-50.938 410.97-5.671 29.099-3.2978 64.859 3.8125 82.344 7.2306 23.698 27.771 48.489 52.344 62.812 29.993 19.426 52.515 18.901 81.75 19.281 0.15344 0.094604 0.35416 0.11829 0.53125 0 30.618-0.034424 53.486-1.238 81.75-19.281 24.573-14.324 45.113-39.114 52.344-62.812 7.1102-17.485 9.4835-53.244 3.8125-82.344-19.112-125.78-29.41-285.55-50.938-410.97-14.492-69.847-79.064-175.99-87.156-176.56-0.027466-0.001938-0.11758-0.002731-0.15625 0z" fill="url(#k)"/>
    <path d="m237.25-193.89c-8.0925 0.5713-72.664 106.72-87.156 176.56-21.528 125.42-31.826 285.19-50.938 410.97-5.671 29.099-3.2978 64.859 3.8125 82.344 7.2306 23.698 27.771 48.489 52.344 62.812 29.993 19.426 52.515 18.901 81.75 19.281 0.15344 0.094604 0.35416 0.11829 0.53125 0 30.618-0.034424 53.486-1.238 81.75-19.281 24.573-14.324 45.113-39.114 52.344-62.812 7.1102-17.485 9.4835-53.244 3.8125-82.344-19.112-125.78-29.41-285.55-50.938-410.97-14.492-69.847-79.064-175.99-87.156-176.56-0.027466-0.001938-0.11758-0.002731-0.15625 0z" fill="url(#j)"/>
   </g>
   <path d="m207.63 556.75l-9.7812 223.44h84.875l-14.875-223.44h-60.219z" fill="url(#l)" stroke-opacity=".464" stroke-width="1.381"/>
  </g>
  <g transform="matrix(.078902 -.02104 .0062334 .029014 410.57 363.98)">
   <g stroke-width="1.25">
    <path d="m233.06-138.99c-8.0925 0.5713-72.664 106.72-87.156 176.56-21.528 125.42-31.826 285.19-50.938 410.97-5.671 29.099-3.2978 64.859 3.8125 82.344 7.2306 23.698 27.771 48.489 52.344 62.812 29.993 19.426 52.515 18.901 81.75 19.281 0.15344 0.094604 0.35416 0.11829 0.53125 0 30.618-0.034363 53.486-1.238 81.75-19.281 24.573-14.323 45.113-39.114 52.344-62.812 7.1102-17.485 9.4835-53.244 3.8125-82.344-19.112-125.78-29.41-285.55-50.938-410.97-14.492-69.847-79.064-175.99-87.156-176.56-0.027466-0.001938-0.11758-0.002731-0.15625 0z" fill="url(#k)"/>
    <path d="m233.06-140.87c-8.0925 0.5713-72.664 106.72-87.156 176.56-21.528 125.42-31.826 285.19-50.938 410.97-5.671 29.099-3.2978 64.859 3.8125 82.344 7.2306 23.698 27.771 48.489 52.344 62.812 29.993 19.426 52.515 18.901 81.75 19.281 0.15344 0.094604 0.35416 0.11829 0.53125 0 30.618-0.034363 53.486-1.238 81.75-19.281 24.573-14.323 45.113-39.114 52.344-62.812 7.1102-17.485 9.4835-53.244 3.8125-82.344-19.112-125.78-29.41-285.55-50.938-410.97-14.492-69.847-79.064-175.99-87.156-176.56-0.027466-0.001938-0.11758-0.002731-0.15625 0z" fill="url(#j)"/>
   </g>
   <path d="m203.44 609.76l-9.7812 223.44h84.875l-14.875-223.44h-60.219z" fill="url(#l)" stroke-opacity=".464" stroke-width="1.381"/>
  </g>
  <g transform="matrix(.077959 -.026302 .010202 .025083 430.04 352.1)">
   <g stroke-width="1.25">
    <path d="m243.13-151.28c-8.0925 0.5713-72.664 106.72-87.156 176.56-21.528 125.42-31.826 285.19-50.938 410.97-5.671 29.099-3.2978 64.859 3.8125 82.344 7.2306 23.698 27.771 48.489 52.344 62.812 29.993 19.426 52.515 18.901 81.75 19.281 0.15344 0.094604 0.35416 0.11829 0.53125 0 30.618-0.034302 53.486-1.2379 81.75-19.281 24.573-14.323 45.113-39.114 52.344-62.812 7.1102-17.485 9.4835-53.244 3.8125-82.344-19.112-125.78-29.41-285.55-50.938-410.97-14.492-69.847-79.064-175.99-87.156-176.56-0.027466-0.001938-0.11758-0.002731-0.15625 0z" fill="url(#k)"/>
    <path d="m243.13-153.16c-8.0925 0.5713-72.664 106.72-87.156 176.56-21.528 125.42-31.826 285.19-50.938 410.97-5.671 29.099-3.2978 64.859 3.8125 82.344 7.2306 23.698 27.771 48.489 52.344 62.812 29.993 19.426 52.515 18.901 81.75 19.281 0.15344 0.094604 0.35416 0.11829 0.53125 0 30.618-0.034302 53.486-1.2379 81.75-19.281 24.573-14.323 45.113-39.114 52.344-62.812 7.1102-17.485 9.4835-53.244 3.8125-82.344-19.112-125.78-29.41-285.55-50.938-410.97-14.492-69.847-79.064-175.99-87.156-176.56-0.027466-0.001938-0.11758-0.002731-0.15625 0z" fill="url(#j)"/>
   </g>
   <path d="m213.5 597.47l-9.7812 223.44h84.875l-14.875-223.44h-60.219z" fill="url(#l)" stroke-opacity=".464" stroke-width="1.381"/>
  </g>
 </g>
 <g fill-rule="evenodd">
  <g transform="matrix(.078902 -.02104 .0062334 .029014 446.99 353.98)">
   <g stroke-width="1.25">
    <path d="m220.19 24.001c-8.0925 0.5713-72.664 106.72-87.156 176.56-21.528 125.42-31.826 285.19-50.938 410.97-5.671 29.099-3.2978 64.859 3.8125 82.344 7.2306 23.698 27.771 48.489 52.344 62.812 29.993 19.426 52.515 18.901 81.75 19.281 0.15344 0.094604 0.35416 0.11829 0.53125 0 30.618-0.034363 53.486-1.238 81.75-19.281 24.573-14.323 45.113-39.114 52.344-62.812 7.1102-17.485 9.4835-53.244 3.8125-82.344-19.112-125.78-29.41-285.55-50.938-410.97-14.492-69.847-79.064-175.99-87.156-176.56-0.027466-0.001942-0.11758-0.002731-0.15625 0z" fill="url(#k)"/>
    <path d="m220.19 22.118c-8.0925 0.5713-72.664 106.72-87.156 176.56-21.528 125.42-31.826 285.19-50.938 410.97-5.671 29.099-3.2978 64.859 3.8125 82.344 7.2306 23.698 27.771 48.489 52.344 62.812 29.993 19.426 52.515 18.901 81.75 19.281 0.15344 0.094604 0.35416 0.11829 0.53125 0 30.618-0.034363 53.486-1.238 81.75-19.281 24.573-14.323 45.113-39.114 52.344-62.812 7.1102-17.485 9.4835-53.244 3.8125-82.344-19.112-125.78-29.41-285.55-50.938-410.97-14.492-69.847-79.064-175.99-87.156-176.56-0.027466-0.001942-0.11758-0.002731-0.15625 0z" fill="url(#j)"/>
   </g>
   <path d="m190.56 772.75l-9.7812 223.44h84.875l-14.875-223.44h-60.219z" fill="url(#l)" stroke-opacity=".464" stroke-width="1.381"/>
  </g>
  <g transform="matrix(.06633 -.015876 .0052402 .021893 469.69 287.95)">
   <g stroke-width="1.25">
    <path d="m220.19 24.001c-8.0925 0.5713-72.664 106.72-87.156 176.56-21.528 125.42-31.826 285.19-50.938 410.97-5.671 29.099-3.2978 64.859 3.8125 82.344 7.2306 23.698 27.771 48.489 52.344 62.812 29.993 19.426 52.515 18.901 81.75 19.281 0.15344 0.094604 0.35416 0.11829 0.53125 0 30.618-0.034363 53.486-1.238 81.75-19.281 24.573-14.323 45.113-39.114 52.344-62.812 7.1102-17.485 9.4835-53.244 3.8125-82.344-19.112-125.78-29.41-285.55-50.938-410.97-14.492-69.847-79.064-175.99-87.156-176.56-0.027466-0.001942-0.11758-0.002731-0.15625 0z" fill="url(#k)"/>
    <path d="m220.19 22.118c-8.0925 0.5713-72.664 106.72-87.156 176.56-21.528 125.42-31.826 285.19-50.938 410.97-5.671 29.099-3.2978 64.859 3.8125 82.344 7.2306 23.698 27.771 48.489 52.344 62.812 29.993 19.426 52.515 18.901 81.75 19.281 0.15344 0.094604 0.35416 0.11829 0.53125 0 30.618-0.034363 53.486-1.238 81.75-19.281 24.573-14.323 45.113-39.114 52.344-62.812 7.1102-17.485 9.4835-53.244 3.8125-82.344-19.112-125.78-29.41-285.55-50.938-410.97-14.492-69.847-79.064-175.99-87.156-176.56-0.027466-0.001942-0.11758-0.002731-0.15625 0z" fill="url(#j)"/>
   </g>
   <path d="m190.56 772.75l-9.7812 223.44h84.875l-14.875-223.44h-60.219z" fill="url(#l)" stroke-opacity=".464" stroke-width="1.381"/>
  </g>
  <g transform="matrix(.078902 -.02104 .0062334 .029014 459.14 303.27)">
   <g stroke-width="1.25">
    <path d="m220.19 24.001c-8.0925 0.5713-72.664 106.72-87.156 176.56-21.528 125.42-31.826 285.19-50.938 410.97-5.671 29.099-3.2978 64.859 3.8125 82.344 7.2306 23.698 27.771 48.489 52.344 62.812 29.993 19.426 52.515 18.901 81.75 19.281 0.15344 0.094604 0.35416 0.11829 0.53125 0 30.618-0.034363 53.486-1.238 81.75-19.281 24.573-14.323 45.113-39.114 52.344-62.812 7.1102-17.485 9.4835-53.244 3.8125-82.344-19.112-125.78-29.41-285.55-50.938-410.97-14.492-69.847-79.064-175.99-87.156-176.56-0.027466-0.001942-0.11758-0.002731-0.15625 0z" fill="url(#k)"/>
    <path d="m220.19 22.118c-8.0925 0.5713-72.664 106.72-87.156 176.56-21.528 125.42-31.826 285.19-50.938 410.97-5.671 29.099-3.2978 64.859 3.8125 82.344 7.2306 23.698 27.771 48.489 52.344 62.812 29.993 19.426 52.515 18.901 81.75 19.281 0.15344 0.094604 0.35416 0.11829 0.53125 0 30.618-0.034363 53.486-1.238 81.75-19.281 24.573-14.323 45.113-39.114 52.344-62.812 7.1102-17.485 9.4835-53.244 3.8125-82.344-19.112-125.78-29.41-285.55-50.938-410.97-14.492-69.847-79.064-175.99-87.156-176.56-0.027466-0.001942-0.11758-0.002731-0.15625 0z" fill="url(#j)"/>
   </g>
   <path d="m190.56 772.75l-9.7812 223.44h84.875l-14.875-223.44h-60.219z" fill="url(#l)" stroke-opacity=".464" stroke-width="1.381"/>
  </g>
  <g transform="matrix(.077959 -.026302 .010202 .025083 478.61 291.39)">
   <g stroke-width="1.25">
    <path d="m220.19 24.001c-8.0925 0.5713-72.664 106.72-87.156 176.56-21.528 125.42-31.826 285.19-50.938 410.97-5.671 29.099-3.2978 64.859 3.8125 82.344 7.2306 23.698 27.771 48.489 52.344 62.812 29.993 19.426 52.515 18.901 81.75 19.281 0.15344 0.094604 0.35416 0.11829 0.53125 0 30.618-0.034363 53.486-1.238 81.75-19.281 24.573-14.323 45.113-39.114 52.344-62.812 7.1102-17.485 9.4835-53.244 3.8125-82.344-19.112-125.78-29.41-285.55-50.938-410.97-14.492-69.847-79.064-175.99-87.156-176.56-0.027466-0.001942-0.11758-0.002731-0.15625 0z" fill="url(#k)"/>
    <path d="m220.19 22.118c-8.0925 0.5713-72.664 106.72-87.156 176.56-21.528 125.42-31.826 285.19-50.938 410.97-5.671 29.099-3.2978 64.859 3.8125 82.344 7.2306 23.698 27.771 48.489 52.344 62.812 29.993 19.426 52.515 18.901 81.75 19.281 0.15344 0.094604 0.35416 0.11829 0.53125 0 30.618-0.034363 53.486-1.238 81.75-19.281 24.573-14.323 45.113-39.114 52.344-62.812 7.1102-17.485 9.4835-53.244 3.8125-82.344-19.112-125.78-29.41-285.55-50.938-410.97-14.492-69.847-79.064-175.99-87.156-176.56-0.027466-0.001942-0.11758-0.002731-0.15625 0z" fill="url(#j)"/>
   </g>
   <path d="m190.56 772.75l-9.7812 223.44h84.875l-14.875-223.44h-60.219z" fill="url(#l)" stroke-opacity=".464" stroke-width="1.381"/>
  </g>
  <g transform="matrix(.077959 -.026302 .010202 .025083 466.47 342.11)">
   <g stroke-width="1.25">
    <path d="m220.19 24.001c-8.0925 0.5713-72.664 106.72-87.156 176.56-21.528 125.42-31.826 285.19-50.938 410.97-5.671 29.099-3.2978 64.859 3.8125 82.344 7.2306 23.698 27.771 48.489 52.344 62.812 29.993 19.426 52.515 18.901 81.75 19.281 0.15344 0.094604 0.35416 0.11829 0.53125 0 30.618-0.034363 53.486-1.238 81.75-19.281 24.573-14.323 45.113-39.114 52.344-62.812 7.1102-17.485 9.4835-53.244 3.8125-82.344-19.112-125.78-29.41-285.55-50.938-410.97-14.492-69.847-79.064-175.99-87.156-176.56-0.027466-0.001942-0.11758-0.002731-0.15625 0z" fill="url(#k)"/>
    <path d="m220.19 22.118c-8.0925 0.5713-72.664 106.72-87.156 176.56-21.528 125.42-31.826 285.19-50.938 410.97-5.671 29.099-3.2978 64.859 3.8125 82.344 7.2306 23.698 27.771 48.489 52.344 62.812 29.993 19.426 52.515 18.901 81.75 19.281 0.15344 0.094604 0.35416 0.11829 0.53125 0 30.618-0.034363 53.486-1.238 81.75-19.281 24.573-14.323 45.113-39.114 52.344-62.812 7.1102-17.485 9.4835-53.244 3.8125-82.344-19.112-125.78-29.41-285.55-50.938-410.97-14.492-69.847-79.064-175.99-87.156-176.56-0.027466-0.001942-0.11758-0.002731-0.15625 0z" fill="url(#j)"/>
   </g>
   <path d="m190.56 772.75l-9.7812 223.44h84.875l-14.875-223.44h-60.219z" fill="url(#l)" stroke-opacity=".464" stroke-width="1.381"/>
  </g>
  <g transform="matrix(.06633 -.015876 .0052402 .021893 481.12 350.09)">
   <g stroke-width="1.25">
    <path d="m220.19 24.001c-8.0925 0.5713-72.664 106.72-87.156 176.56-21.528 125.42-31.826 285.19-50.938 410.97-5.671 29.099-3.2978 64.859 3.8125 82.344 7.2306 23.698 27.771 48.489 52.344 62.812 29.993 19.426 52.515 18.901 81.75 19.281 0.15344 0.094604 0.35416 0.11829 0.53125 0 30.618-0.034363 53.486-1.238 81.75-19.281 24.573-14.323 45.113-39.114 52.344-62.812 7.1102-17.485 9.4835-53.244 3.8125-82.344-19.112-125.78-29.41-285.55-50.938-410.97-14.492-69.847-79.064-175.99-87.156-176.56-0.027466-0.001942-0.11758-0.002731-0.15625 0z" fill="url(#k)"/>
    <path d="m220.19 22.118c-8.0925 0.5713-72.664 106.72-87.156 176.56-21.528 125.42-31.826 285.19-50.938 410.97-5.671 29.099-3.2978 64.859 3.8125 82.344 7.2306 23.698 27.771 48.489 52.344 62.812 29.993 19.426 52.515 18.901 81.75 19.281 0.15344 0.094604 0.35416 0.11829 0.53125 0 30.618-0.034363 53.486-1.238 81.75-19.281 24.573-14.323 45.113-39.114 52.344-62.812 7.1102-17.485 9.4835-53.244 3.8125-82.344-19.112-125.78-29.41-285.55-50.938-410.97-14.492-69.847-79.064-175.99-87.156-176.56-0.027466-0.001942-0.11758-0.002731-0.15625 0z" fill="url(#j)"/>
   </g>
   <path d="m190.56 772.75l-9.7812 223.44h84.875l-14.875-223.44h-60.219z" fill="url(#l)" stroke-opacity=".464" stroke-width="1.381"/>
  </g>
  <g transform="matrix(.078902 -.02104 .0062334 .029014 470.57 365.41)">
   <g stroke-width="1.25">
    <path d="m220.19 24.001c-8.0925 0.5713-72.664 106.72-87.156 176.56-21.528 125.42-31.826 285.19-50.938 410.97-5.671 29.099-3.2978 64.859 3.8125 82.344 7.2306 23.698 27.771 48.489 52.344 62.812 29.993 19.426 52.515 18.901 81.75 19.281 0.15344 0.094604 0.35416 0.11829 0.53125 0 30.618-0.034363 53.486-1.238 81.75-19.281 24.573-14.323 45.113-39.114 52.344-62.812 7.1102-17.485 9.4835-53.244 3.8125-82.344-19.112-125.78-29.41-285.55-50.938-410.97-14.492-69.847-79.064-175.99-87.156-176.56-0.027466-0.001942-0.11758-0.002731-0.15625 0z" fill="url(#k)"/>
    <path d="m220.19 22.118c-8.0925 0.5713-72.664 106.72-87.156 176.56-21.528 125.42-31.826 285.19-50.938 410.97-5.671 29.099-3.2978 64.859 3.8125 82.344 7.2306 23.698 27.771 48.489 52.344 62.812 29.993 19.426 52.515 18.901 81.75 19.281 0.15344 0.094604 0.35416 0.11829 0.53125 0 30.618-0.034363 53.486-1.238 81.75-19.281 24.573-14.323 45.113-39.114 52.344-62.812 7.1102-17.485 9.4835-53.244 3.8125-82.344-19.112-125.78-29.41-285.55-50.938-410.97-14.492-69.847-79.064-175.99-87.156-176.56-0.027466-0.001942-0.11758-0.002731-0.15625 0z" fill="url(#j)"/>
   </g>
   <path d="m190.56 772.75l-9.7812 223.44h84.875l-14.875-223.44h-60.219z" fill="url(#l)" stroke-opacity=".464" stroke-width="1.381"/>
  </g>
  <g transform="matrix(.077959 -.026302 .010202 .025083 490.04 353.53)">
   <g stroke-width="1.25">
    <path d="m220.19 24.001c-8.0925 0.5713-72.664 106.72-87.156 176.56-21.528 125.42-31.826 285.19-50.938 410.97-5.671 29.099-3.2978 64.859 3.8125 82.344 7.2306 23.698 27.771 48.489 52.344 62.812 29.993 19.426 52.515 18.901 81.75 19.281 0.15344 0.094604 0.35416 0.11829 0.53125 0 30.618-0.034363 53.486-1.238 81.75-19.281 24.573-14.323 45.113-39.114 52.344-62.812 7.1102-17.485 9.4835-53.244 3.8125-82.344-19.112-125.78-29.41-285.55-50.938-410.97-14.492-69.847-79.064-175.99-87.156-176.56-0.027466-0.001942-0.11758-0.002731-0.15625 0z" fill="url(#k)"/>
    <path d="m220.19 22.118c-8.0925 0.5713-72.664 106.72-87.156 176.56-21.528 125.42-31.826 285.19-50.938 410.97-5.671 29.099-3.2978 64.859 3.8125 82.344 7.2306 23.698 27.771 48.489 52.344 62.812 29.993 19.426 52.515 18.901 81.75 19.281 0.15344 0.094604 0.35416 0.11829 0.53125 0 30.618-0.034363 53.486-1.238 81.75-19.281 24.573-14.323 45.113-39.114 52.344-62.812 7.1102-17.485 9.4835-53.244 3.8125-82.344-19.112-125.78-29.41-285.55-50.938-410.97-14.492-69.847-79.064-175.99-87.156-176.56-0.027466-0.001942-0.11758-0.002731-0.15625 0z" fill="url(#j)"/>
   </g>
   <path d="m190.56 772.75l-9.7812 223.44h84.875l-14.875-223.44h-60.219z" fill="url(#l)" stroke-opacity=".464" stroke-width="1.381"/>
  </g>
 </g>
 <g fill-rule="evenodd">
  <g transform="matrix(.06633 -.015876 .0052402 .021893 421.12 348.66)">
   <g stroke-width="1.25">
    <path d="m-398.84-12787c-8.0925 0.57129-72.664 106.72-87.156 176.56-21.528 125.42-31.826 285.19-50.938 410.97-5.671 29.1-3.2978 64.858 3.8125 82.344 7.2306 23.698 27.771 48.489 52.344 62.812 29.993 19.427 52.515 18.901 81.75 19.281 0.15344 0.094727 0.35416 0.11816 0.53125 0 30.618-0.03418 53.486-1.2383 81.75-19.281 24.573-14.323 45.113-39.114 52.344-62.812 7.1102-17.485 9.4835-53.244 3.8125-82.344-19.112-125.77-29.41-285.55-50.938-410.97-14.492-69.847-79.064-175.99-87.156-176.56-0.027466-0.001953-0.11758-0.00293-0.15625 0z" fill="url(#k)"/>
    <path d="m-398.84-12789c-8.0925 0.57129-72.664 106.72-87.156 176.56-21.528 125.42-31.826 285.19-50.938 410.97-5.671 29.1-3.2978 64.858 3.8125 82.344 7.2306 23.698 27.771 48.489 52.344 62.812 29.993 19.427 52.515 18.901 81.75 19.281 0.15344 0.094727 0.35416 0.11816 0.53125 0 30.618-0.03418 53.486-1.2373 81.75-19.281 24.573-14.323 45.113-39.114 52.344-62.812 7.1102-17.485 9.4835-53.244 3.8125-82.344-19.112-125.77-29.41-285.55-50.938-410.97-14.492-69.847-79.064-175.99-87.156-176.56-0.027466-0.001953-0.11758-0.00293-0.15625 0z" fill="url(#j)"/>
   </g>
   <path d="m-428.47-12038l-9.7812 223.44h84.875l-14.875-223.44h-60.219z" fill="url(#l)" stroke-opacity=".464" stroke-width="1.381"/>
  </g>
  <g transform="matrix(.078902 -.02104 .0062334 .029014 410.57 363.98)">
   <g stroke-width="1.25">
    <path d="m-379.74-9739c-8.0925 0.57129-72.664 106.72-87.156 176.56-21.528 125.42-31.826 285.19-50.938 410.97-5.671 29.1-3.2977 64.858 3.8125 82.344 7.2306 23.698 27.771 48.489 52.344 62.812 29.993 19.427 52.515 18.901 81.75 19.281 0.15344 0.094727 0.35416 0.11816 0.53125 0 30.618-0.03418 53.486-1.2383 81.75-19.281 24.573-14.323 45.113-39.114 52.344-62.812 7.1102-17.485 9.4835-53.244 3.8125-82.344-19.112-125.77-29.41-285.55-50.938-410.97-14.492-69.847-79.064-175.99-87.156-176.56-0.027466-0.001953-0.11758-0.00293-0.15625 0z" fill="url(#k)"/>
    <path d="m-379.74-9740.9c-8.0925 0.57129-72.664 106.72-87.156 176.56-21.528 125.42-31.826 285.19-50.938 410.97-5.671 29.1-3.2977 64.858 3.8125 82.344 7.2306 23.698 27.771 48.489 52.344 62.812 29.993 19.427 52.515 18.901 81.75 19.281 0.15344 0.094727 0.35416 0.11816 0.53125 0 30.618-0.03418 53.486-1.2373 81.75-19.281 24.573-14.323 45.113-39.114 52.344-62.812 7.1102-17.485 9.4835-53.244 3.8125-82.344-19.112-125.77-29.41-285.55-50.938-410.97-14.492-69.847-79.064-175.99-87.156-176.56-0.027466-0.001953-0.11758-0.00293-0.15625 0z" fill="url(#j)"/>
   </g>
   <path d="m-409.36-8990.3l-9.7812 223.44h84.875l-14.875-223.44h-60.219z" fill="url(#l)" stroke-opacity=".464" stroke-width="1.381"/>
  </g>
  <g transform="matrix(.077959 -.026302 .010202 .025083 430.04 352.1)">
   <g stroke-width="1.25">
    <path d="m241.52-10744c-8.0925 0.57129-72.664 106.72-87.156 176.56-21.528 125.42-31.826 285.19-50.938 410.97-5.671 29.1-3.2978 64.858 3.8125 82.344 7.2306 23.698 27.771 48.489 52.344 62.812 29.993 19.427 52.515 18.901 81.75 19.281 0.15344 0.094727 0.35416 0.11816 0.53125 0 30.618-0.03418 53.486-1.2383 81.75-19.281 24.573-14.323 45.113-39.114 52.344-62.812 7.1102-17.485 9.4835-53.244 3.8125-82.344-19.112-125.77-29.41-285.55-50.938-410.97-14.492-69.847-79.064-175.99-87.156-176.56-0.027466-0.001953-0.11758-0.00293-0.15625 0z" fill="url(#k)"/>
    <path d="m241.52-10745c-8.0925 0.57129-72.664 106.72-87.156 176.56-21.528 125.42-31.826 285.19-50.938 410.97-5.671 29.1-3.2978 64.858 3.8125 82.344 7.2306 23.698 27.771 48.489 52.344 62.812 29.993 19.427 52.515 18.901 81.75 19.281 0.15344 0.094727 0.35416 0.11816 0.53125 0 30.618-0.03418 53.486-1.2373 81.75-19.281 24.573-14.323 45.113-39.114 52.344-62.812 7.1102-17.485 9.4835-53.244 3.8125-82.344-19.112-125.77-29.41-285.55-50.938-410.97-14.492-69.847-79.064-175.99-87.156-176.56-0.027466-0.001953-0.11758-0.00293-0.15625 0z" fill="url(#j)"/>
   </g>
   <path d="m211.89-9994.8l-9.7812 223.44h84.875l-14.875-223.44h-60.219z" fill="url(#l)" stroke-opacity=".464" stroke-width="1.381"/>
  </g>
 </g>
 <g fill-rule="evenodd">
  <g transform="matrix(.06633 -.015876 .0052402 .021893 574.69 158.66)">
   <g stroke-width="1.25">
    <path d="m-2727.7-6456.2c-8.0923 0.57129-72.664 106.72-87.156 176.56-21.528 125.42-31.826 285.19-50.938 410.97-5.6709 29.1-3.2978 64.858 3.8125 82.344 7.2305 23.698 27.77 48.489 52.344 62.812 29.993 19.426 52.516 18.901 81.75 19.281 0.15332 0.094727 0.35449 0.11816 0.53125 0 30.618-0.03418 53.486-1.2378 81.75-19.281 24.573-14.323 45.113-39.114 52.344-62.812 7.1104-17.485 9.4834-53.244 3.8125-82.344-19.111-125.77-29.41-285.55-50.938-410.97-14.492-69.847-79.064-175.99-87.156-176.56-0.027344-0.001953-0.11768-0.00293-0.15625 0z" fill="url(#k)"/>
    <path d="m-2727.7-6458.1c-8.0923 0.57129-72.664 106.72-87.156 176.56-21.528 125.42-31.826 285.19-50.938 410.97-5.6709 29.1-3.2978 64.859 3.8125 82.344 7.2305 23.698 27.77 48.489 52.344 62.812 29.993 19.427 52.516 18.901 81.75 19.281 0.15332 0.094727 0.35449 0.11865 0.53125 0 30.618-0.03418 53.486-1.2378 81.75-19.281 24.573-14.323 45.113-39.114 52.344-62.812 7.1104-17.485 9.4834-53.244 3.8125-82.344-19.112-125.77-29.41-285.55-50.938-410.97-14.492-69.847-79.064-175.99-87.156-176.56-0.027344-0.001465-0.11768-0.002441-0.15625 0z" fill="url(#j)"/>
   </g>
   <path d="m-2757.3-5707.5l-9.7812 223.44h84.875l-14.875-223.44h-60.219z" fill="url(#l)" stroke-opacity=".464" stroke-width="1.381"/>
  </g>
  <g transform="matrix(.078902 -.02104 .0062334 .029014 564.14 173.98)">
   <g stroke-width="1.25">
    <path d="m-2285.9-5070.1c-8.0928 0.57129-72.665 106.72-87.156 176.56-21.528 125.42-31.826 285.19-50.938 410.97-5.6709 29.1-3.2978 64.858 3.8125 82.344 7.2305 23.698 27.77 48.489 52.344 62.812 29.993 19.426 52.515 18.901 81.75 19.281 0.15332 0.094727 0.354 0.11816 0.53125 0 30.618-0.03418 53.486-1.2378 81.75-19.281 24.573-14.323 45.113-39.114 52.344-62.812 7.1101-17.485 9.4834-53.244 3.8125-82.344-19.112-125.77-29.41-285.55-50.938-410.97-14.492-69.847-79.064-175.99-87.156-176.56-0.027832-0.001953-0.11768-0.00293-0.15625 0z" fill="url(#k)"/>
    <path d="m-2285.9-5072c-8.0928 0.57129-72.665 106.72-87.156 176.56-21.528 125.42-31.826 285.19-50.938 410.97-5.6709 29.1-3.2978 64.859 3.8125 82.344 7.2305 23.698 27.77 48.489 52.344 62.812 29.993 19.427 52.515 18.901 81.75 19.281 0.15332 0.094727 0.354 0.11865 0.53125 0 30.618-0.03418 53.486-1.2378 81.75-19.281 24.573-14.323 45.113-39.114 52.344-62.812 7.1101-17.485 9.4834-53.244 3.8125-82.344-19.112-125.77-29.41-285.55-50.938-410.97-14.492-69.847-79.064-175.99-87.156-176.56-0.027832-0.001465-0.11768-0.002441-0.15625 0z" fill="url(#j)"/>
   </g>
   <path d="m-2315.5-4321.4l-9.7812 223.44h84.875l-14.875-223.44h-60.219z" fill="url(#l)" stroke-opacity=".464" stroke-width="1.381"/>
  </g>
  <g transform="matrix(.077959 -.026302 .010202 .025083 583.61 162.1)">
   <g stroke-width="1.25">
    <path d="m-1932.1-6023.2c-8.0925 0.57129-72.664 106.72-87.156 176.56-21.528 125.42-31.826 285.19-50.938 410.97-5.6709 29.1-3.2976 64.858 3.8125 82.344 7.2307 23.698 27.771 48.489 52.344 62.812 29.993 19.426 52.515 18.901 81.75 19.281 0.15344 0.094727 0.35413 0.11816 0.53125 0 30.618-0.03418 53.486-1.2378 81.75-19.281 24.573-14.323 45.113-39.114 52.344-62.812 7.1102-17.485 9.4835-53.244 3.8125-82.344-19.112-125.77-29.41-285.55-50.938-410.97-14.492-69.847-79.064-175.99-87.156-176.56-0.027466-0.001953-0.11755-0.00293-0.15625 0z" fill="url(#k)"/>
    <path d="m-1932.1-6025.1c-8.0925 0.57129-72.664 106.72-87.156 176.56-21.528 125.42-31.826 285.19-50.938 410.97-5.6709 29.1-3.2976 64.859 3.8125 82.344 7.2307 23.698 27.771 48.489 52.344 62.812 29.993 19.427 52.515 18.901 81.75 19.281 0.15344 0.094727 0.35413 0.11865 0.53125 0 30.618-0.03418 53.486-1.2378 81.75-19.281 24.573-14.323 45.113-39.114 52.344-62.812 7.1102-17.485 9.4835-53.244 3.8125-82.344-19.112-125.77-29.41-285.55-50.938-410.97-14.492-69.847-79.064-175.99-87.156-176.56-0.027466-0.001465-0.11755-0.002441-0.15625 0z" fill="url(#j)"/>
   </g>
   <path d="m-1961.8-5274.5l-9.7812 223.44h84.875l-14.875-223.44h-60.219z" fill="url(#l)" stroke-opacity=".464" stroke-width="1.381"/>
  </g>
 </g>
 <g fill-rule="evenodd">
  <g transform="matrix(.078902 -.02104 .0062334 .029014 372.14 63.082)">
   <g stroke-width="1.25">
    <path d="m220.19 24.001c-8.0925 0.5713-72.664 106.72-87.156 176.56-21.528 125.42-31.826 285.19-50.938 410.97-5.671 29.099-3.2978 64.859 3.8125 82.344 7.2306 23.698 27.771 48.489 52.344 62.812 29.993 19.426 52.515 18.901 81.75 19.281 0.15344 0.094604 0.35416 0.11829 0.53125 0 30.618-0.034363 53.486-1.238 81.75-19.281 24.573-14.323 45.113-39.114 52.344-62.812 7.1102-17.485 9.4835-53.244 3.8125-82.344-19.112-125.78-29.41-285.55-50.938-410.97-14.492-69.847-79.064-175.99-87.156-176.56-0.027466-0.001942-0.11758-0.002731-0.15625 0z" fill="url(#k)"/>
    <path d="m220.19 22.118c-8.0925 0.5713-72.664 106.72-87.156 176.56-21.528 125.42-31.826 285.19-50.938 410.97-5.671 29.099-3.2978 64.859 3.8125 82.344 7.2306 23.698 27.771 48.489 52.344 62.812 29.993 19.426 52.515 18.901 81.75 19.281 0.15344 0.094604 0.35416 0.11829 0.53125 0 30.618-0.034363 53.486-1.238 81.75-19.281 24.573-14.323 45.113-39.114 52.344-62.812 7.1102-17.485 9.4835-53.244 3.8125-82.344-19.112-125.78-29.41-285.55-50.938-410.97-14.492-69.847-79.064-175.99-87.156-176.56-0.027466-0.001942-0.11758-0.002731-0.15625 0z" fill="url(#j)"/>
   </g>
   <path d="m190.56 772.75l-9.7812 223.44h84.875l-14.875-223.44h-60.219z" fill="url(#l)" stroke-opacity=".464" stroke-width="1.381"/>
  </g>
  <g transform="matrix(.077959 -.026302 .010202 .025083 389.59 77.471)">
   <g stroke-width="1.25">
    <path d="m220.19 24.001c-8.0925 0.5713-72.664 106.72-87.156 176.56-21.528 125.42-31.826 285.19-50.938 410.97-5.671 29.099-3.2978 64.859 3.8125 82.344 7.2306 23.698 27.771 48.489 52.344 62.812 29.993 19.426 52.515 18.901 81.75 19.281 0.15344 0.094604 0.35416 0.11829 0.53125 0 30.618-0.034363 53.486-1.238 81.75-19.281 24.573-14.323 45.113-39.114 52.344-62.812 7.1102-17.485 9.4835-53.244 3.8125-82.344-19.112-125.78-29.41-285.55-50.938-410.97-14.492-69.847-79.064-175.99-87.156-176.56-0.027466-0.001942-0.11758-0.002731-0.15625 0z" fill="url(#k)"/>
    <path d="m220.19 22.118c-8.0925 0.5713-72.664 106.72-87.156 176.56-21.528 125.42-31.826 285.19-50.938 410.97-5.671 29.099-3.2978 64.859 3.8125 82.344 7.2306 23.698 27.771 48.489 52.344 62.812 29.993 19.426 52.515 18.901 81.75 19.281 0.15344 0.094604 0.35416 0.11829 0.53125 0 30.618-0.034363 53.486-1.238 81.75-19.281 24.573-14.323 45.113-39.114 52.344-62.812 7.1102-17.485 9.4835-53.244 3.8125-82.344-19.112-125.78-29.41-285.55-50.938-410.97-14.492-69.847-79.064-175.99-87.156-176.56-0.027466-0.001942-0.11758-0.002731-0.15625 0z" fill="url(#j)"/>
   </g>
   <path d="m190.56 772.75l-9.7812 223.44h84.875l-14.875-223.44h-60.219z" fill="url(#l)" stroke-opacity=".464" stroke-width="1.381"/>
  </g>
  <g transform="matrix(.061141 -.030225 .0099764 .020181 198.87 146.23)">
   <g stroke-width="1.25">
    <path d="m220.19 24.001c-8.0925 0.5713-72.664 106.72-87.156 176.56-21.528 125.42-31.826 285.19-50.938 410.97-5.671 29.099-3.2978 64.859 3.8125 82.344 7.2306 23.698 27.771 48.489 52.344 62.812 29.993 19.426 52.515 18.901 81.75 19.281 0.15344 0.094604 0.35416 0.11829 0.53125 0 30.618-0.034363 53.486-1.238 81.75-19.281 24.573-14.323 45.113-39.114 52.344-62.812 7.1102-17.485 9.4835-53.244 3.8125-82.344-19.112-125.78-29.41-285.55-50.938-410.97-14.492-69.847-79.064-175.99-87.156-176.56-0.027466-0.001942-0.11758-0.002731-0.15625 0z" fill="url(#k)"/>
    <path d="m220.19 22.118c-8.0925 0.5713-72.664 106.72-87.156 176.56-21.528 125.42-31.826 285.19-50.938 410.97-5.671 29.099-3.2978 64.859 3.8125 82.344 7.2306 23.698 27.771 48.489 52.344 62.812 29.993 19.426 52.515 18.901 81.75 19.281 0.15344 0.094604 0.35416 0.11829 0.53125 0 30.618-0.034363 53.486-1.238 81.75-19.281 24.573-14.323 45.113-39.114 52.344-62.812 7.1102-17.485 9.4835-53.244 3.8125-82.344-19.112-125.78-29.41-285.55-50.938-410.97-14.492-69.847-79.064-175.99-87.156-176.56-0.027466-0.001942-0.11758-0.002731-0.15625 0z" fill="url(#j)"/>
   </g>
   <path d="m190.56 772.75l-9.7812 223.44h84.875l-14.875-223.44h-60.219z" fill="url(#l)" stroke-opacity=".464" stroke-width="1.381"/>
  </g>
  <g transform="matrix(.06633 -.015876 .0052402 .021893 361.48 82.111)">
   <g stroke-width="1.25">
    <path d="m220.19 24.001c-8.0925 0.5713-72.664 106.72-87.156 176.56-21.528 125.42-31.826 285.19-50.938 410.97-5.671 29.099-3.2978 64.859 3.8125 82.344 7.2306 23.698 27.771 48.489 52.344 62.812 29.993 19.426 52.515 18.901 81.75 19.281 0.15344 0.094604 0.35416 0.11829 0.53125 0 30.618-0.034363 53.486-1.238 81.75-19.281 24.573-14.323 45.113-39.114 52.344-62.812 7.1102-17.485 9.4835-53.244 3.8125-82.344-19.112-125.78-29.41-285.55-50.938-410.97-14.492-69.847-79.064-175.99-87.156-176.56-0.027466-0.001942-0.11758-0.002731-0.15625 0z" fill="url(#k)"/>
    <path d="m220.19 22.118c-8.0925 0.5713-72.664 106.72-87.156 176.56-21.528 125.42-31.826 285.19-50.938 410.97-5.671 29.099-3.2978 64.859 3.8125 82.344 7.2306 23.698 27.771 48.489 52.344 62.812 29.993 19.426 52.515 18.901 81.75 19.281 0.15344 0.094604 0.35416 0.11829 0.53125 0 30.618-0.034363 53.486-1.238 81.75-19.281 24.573-14.323 45.113-39.114 52.344-62.812 7.1102-17.485 9.4835-53.244 3.8125-82.344-19.112-125.78-29.41-285.55-50.938-410.97-14.492-69.847-79.064-175.99-87.156-176.56-0.027466-0.001942-0.11758-0.002731-0.15625 0z" fill="url(#j)"/>
   </g>
   <path d="m190.56 772.75l-9.7812 223.44h84.875l-14.875-223.44h-60.219z" fill="url(#l)" stroke-opacity=".464" stroke-width="1.381"/>
  </g>
  <g stroke-linecap="round" stroke-linejoin="round">
   <path d="m102.86 246.65c41.786 23.929 64.422-27.097 115.71-18.571 30.081 5.0001 53.571 46.429 51.429 85.714-2.7315 50.078-28.476 79.411-14.286 111.43 18.308 41.308 65.985 33.691 104.29 14.286 26.786-13.571 31.708-70.46 42.857-102.86 15.789-45.879 36.518-76.895 65.714-78.571 74.643-4.2857 36.071 89.286 94.286 117.14" fill="none" stroke="#000" stroke-dasharray="14.525000,43.575000" stroke-width="14.525"/>
   <path d="m342.86 330.22c-5-8.8095-14.495-17.137-12.857-25 1.9333-9.2798 13.156-21.51 23.571-26.429 15.299-7.2247 35.571-4.8099 51.429-11.429 11.524-4.8099 27.941-13.746 30.714-22.857 2.227-7.3173-10.202-17.792-15.714-26.429-8.773-13.744-25.811-27.841-27.143-40.714-0.81113-7.8409 12.065-17.627 20.714-21.429 13.018-5.7221 29.718-4.0472 44.286-7.1428 4.48-0.952 10.087-2.8283 14.372-4.4949-0.71429-1.4286-0.35715-0.35715-1.0714-1.7857-4.0476 2.1429-10.329 2.5592-14.73 3.4235-8.9331 1.7547-18.832-0.48593-27.857 1.4286-14.546 3.0855-33.905 8.8838-38.571 18.571-8.6065 17.868 0.75494 22.969 7.1428 35 7.8978 14.874 31.292 28.566 31.429 40.714 0.10159 9.0426-19.328 17.586-30.714 22.857-14.328 6.6332-35.588 1.861-49.286 9.2857-11.779 6.3848-22.296 21.137-30 32.143-5.6292 8.0417 2.2619 17.976-3.5714 26.429" fill="#94b495" stroke="#0078a7" stroke-width="5.125"/>
  </g>
 </g>
</svg>
