<?xml version="1.0" encoding="iso-8859-1"?>
<!-- Generator: Adobe Illustrator 19.0.0, SVG Export Plug-In . SVG Version: 6.00 Build 0)  -->
<svg version="1.1" id="Capa_1" xmlns="http://www.w3.org/2000/svg" xmlns:xlink="http://www.w3.org/1999/xlink" x="0px" y="0px"
	 viewBox="0 0 480 480" style="enable-background:new 0 0 480 480;" xml:space="preserve">
<g>
	<g>
		<path d="M477.656,326.34l-32-32c-1.224-1.224-2.816-2.016-4.52-2.264l-54.376-7.768l-133.128-81.032L207.624,57.588
			c-0.64-2.04-2.08-3.744-3.992-4.712c-1.896-0.976-4.12-1.136-6.168-0.464l-26.112,8.704C154.992,66.564,144,81.82,144,99.06v0.936
			h-40c-1.056,0-2.104,0.208-3.08,0.616L48,122.66v-6.664c0-13.232-10.768-24-24-24s-24,10.768-24,24v32h0.112
			c0,0.648-0.04,1.288,0.128,1.944c15.384,61.536,15.384,126.584,0,188.12C0.08,338.692,0,339.34,0,339.996v48
			c0,22.056,17.944,40,40,40h104c2.584,0,5.008-1.248,6.504-3.352l16.896-23.656l43.128,9.952l6.312,12.632
			c1.36,2.712,4.128,4.424,7.16,4.424h89.472c58.192,0,114.544-17.064,162.968-49.344c2.224-1.488,3.56-3.984,3.56-6.656v-40
			C480,329.876,479.16,327.836,477.656,326.34z M204.728,101.524l28.144,89.112l-27.2-16.552L192,153.572v-47.816L204.728,101.524z
			 M160,99.06c0-10.344,6.592-19.496,16.416-22.768l18.408-6.136l5.088,16.104l-18.44,6.144C178.2,93.5,176,96.548,176,99.996
			v29.576l-16-24V99.06z M144,163.996v-48h3.72l45.624,68.44c0.648,0.976,1.504,1.792,2.496,2.392l16.168,9.84l-25.672,25.672
			l11.312,11.312l28.424-28.424l14.112,8.592l0.184,0.584l0.512-0.16l10.912,6.64l-25.456,25.456l11.312,11.312l28.208-28.208
			l25.72,15.656l-25.24,25.24l11.312,11.312l27.992-27.992l25.72,15.656l-25.024,25.024l11.312,11.312l27.776-27.776l25.72,15.656
			l-24.808,24.808l11.312,11.312l29.176-29.176l49.4,7.056l20.96,20.96L351.568,363.7l-141.832-31.52
			c-1-0.216-2.04-0.248-3.048-0.08l-39.16,6.528c-3.16-51.456-31.944-95.984-73.816-121.032l47.952-47.952
			C143.16,168.156,144,166.116,144,163.996z M26.384,212.524c66.704,5.072,120.016,58.384,125.088,125.096l-53.536-13.384
			c-1.616-0.408-3.352-0.28-4.904,0.336l-37.28,14.912L18.976,327.22C26.896,289.54,29.36,250.86,26.384,212.524z M105.6,115.996
			H128v44.688l-49.104,49.104c-16.624-7.6-34.824-12.224-53.992-13.336c-1.728-14.68-4.184-29.272-7.528-43.688L105.6,115.996z
			 M16,115.996c0-4.408,3.584-8,8-8s8,3.592,8,8v13.336l-16,6.664V115.996z M464,367.676c-5.232,3.376-10.584,6.528-16,9.528v-5.208
			h-16v13.36c-5.264,2.488-10.608,4.76-16,6.904v-4.264h-16v10.04c-5.288,1.736-10.616,3.312-16,4.72v-6.76h-16v10.496
			c-5.304,1.056-10.624,2.048-16,2.8v-5.296h-16v7.016c-5.312,0.432-10.648,0.624-16,0.752v-7.768h-16v8h-16v-8h-16v8h-16v-8h-16v8
			h-11.056l-5.792-11.576c-1.072-2.136-3.032-3.68-5.36-4.216l-52-12c-3.136-0.712-6.432,0.52-8.304,3.152l-17.608,24.64H136v-16
			h-16v16h-16v-16H88v16H72v-16H56v16H40v-16H24v9.76c-4.872-4.4-8-10.696-8-17.76V343.1l37.472,12.488
			c1.792,0.6,3.744,0.536,5.504-0.16l37.6-15.04l61.496,15.376c1.048,0.264,2.168,0.312,3.248,0.128l46.472-7.744l142.488,31.664
			c0.552,0.12,1.144,0.184,1.72,0.184c0.856,0,1.712-0.136,2.528-0.408L464,343.1V367.676z"/>
	</g>
</g>
<g>
</g>
<g>
</g>
<g>
</g>
<g>
</g>
<g>
</g>
<g>
</g>
<g>
</g>
<g>
</g>
<g>
</g>
<g>
</g>
<g>
</g>
<g>
</g>
<g>
</g>
<g>
</g>
<g>
</g>
</svg>
