<?xml version="1.0" encoding="UTF-8"?>
<svg viewBox="0 0 640 480" xmlns="http://www.w3.org/2000/svg">
 <g fill-rule="evenodd">
  <g stroke="#000" stroke-miterlimit="10" stroke-width=".036">
   <path d="m197.56 141.09c7.092 13.104 16.38 22.212 28.152 27.901 11.916 5.58 25.776 10.188 42.12 5.65 16.235-4.752 33.804-15.624 54.072-33.299-0.43298 9 2.088 21.096 7.848 37.26 5.796 16.092 18.936 44.641 26.388 58.572 7.309 13.787 12.924 21.672 17.244 23.939l-7.38 4.535 2.268 21.277c-8.352-0.36102-16.487-0.43201-24.947-0.072021-8.496 0.21701-6.265 0.28702-25.381 2.016-19.331 1.764-48.6 4.428-89.208 8.389-20.7-0.93597-38.988-2.412-55.836-4.861-16.92-2.52-33.984-6.73-44.388-9.574-10.368-2.916-15.984-5.473-17.28-7.668 0.108-6.084 0.504-10.766 1.188-14.328 0.612-3.529 1.548-5.832 2.664-6.77l-4.68-1.26c10.62-7.883 21.744-18.863 34.2-33.623 12.312-14.904 30.636-41.221 39.564-54.36 8.82-13.104 13.284-20.916 13.392-23.724z"/>
   <g fill="#3f3f3f">
    <path d="m309.32 160.39c-8.892 13.5-18.972 27-30.672 41.076-11.916 14.076-28.8 31.609-39.276 42.588-10.44 10.729-17.856 17.928-22.68 21.744 4.716-0.57599 7.668 0.43201 8.856 3.023 1.044 2.521-1.692 7.885-1.8 12.35-0.071991 4.428 0.324 9.107 1.332 14.184 9.144-3.061 18.108-5.076 27.18-6.191 9.072-1.189 17.964-1.332 26.964-0.57599 4.356-3.924 8.208-12.602 11.7-26.172 3.456-13.861 5.796-37.873 8.964-55.08 3.06-17.173 6.157-32.546 9.432-46.946z"/>
    <path d="m320.36 166.44c-1.044 3.924 2.376 13.608 10.404 29.448 8.064 15.984 20.34 37.152 37.512 65.053l-6.443 2.916 3.672 19.152c-0.64801-0.686-4.536-1.08-11.809-1.332-7.308-0.25201-17.747-0.36102-31.607-0.18002-5.58-9.613-8.82-21.168-9.72-35.102-0.90002-14.076 2.844-34.703 4.283-48.131 1.332-13.499 2.521-23.831 3.708-31.824z"/>
   </g>
  </g>
  <path d="m298.47 290.17l2.484-2.34-2.269-2.557 2.988 1.619 1.728-2.951-0.611 3.385 3.312 0.719-3.384 0.432 0.36 3.385-1.477-3.061-3.131 1.369z"/>
 </g>
 <g stroke="#000">
  <g fill-rule="evenodd" stroke-miterlimit="10" stroke-width=".036">
   <path d="m297.95 291.33c1.477-19.694 3.601-40.268 6.229-62.863 2.592-22.661 5.832-46.104 9.576-71.602l3.6 0.7173c-4.859 28.432-8.315 53.148-10.764 75.514-2.412 22.303-3.601 41.018-3.564 57.287-1.692 0.29346-3.384 0.61951-5.077 0.94647z" fill="#fff"/>
   <path d="m297.72 167.34c-5.796 3.78-13.752 6.768-24.012 9.108-10.404 2.268-32.292 1.549-37.477 4.787-5.04 3.205 7.416 13.32 6.696 14.258-0.972 0.57399-8.856-5.51-12.276-9.506-3.528-4.104-4.248-9.504-8.532-13.822-4.5-4.249-13.392-7.633-17.532-11.413-4.104-3.852-6.372-7.74-6.948-11.664-0.68399 4.644-4.788 12.24-12.168 23.077-7.56 10.906-20.844 28.08-32.364 41.508-11.628 13.32-23.652 25.668-36.648 37.727-0.036003 2.557 4.32 5.797 13.068 9.865 8.82 4.068 25.164 13.428 39.312 14.184 14.112 0.504 28.62-3.023 44.496-10.729 11.16-10.332 20.952-19.908 29.772-29.268 8.712-9.324 13.429-15.336 22.608-26.641 9.181-11.519 19.657-25.019 32.005-41.471z" fill="#3f3f3f"/>
   <path d="m159.04 270.69c-0.576-1.26 15.66-1.729 16.488-6.119 0.468-4.682-12.996-19.908-12.6-21.24 0.46799-1.297 13.068 14.832 15.444 13.391 2.196-1.799-2.592-23.076-1.728-23.004 0.828 0.145 5.976 17.641 6.552 24.156 0.396 6.443 0.072006 12.313-3.888 14.545-4.176 1.978-19.584-0.36099-20.268-1.729z"/>
   <path d="m117.97 258.27c2.088 3.061 6.696 5.904 14.112 9.072 7.416 2.988 17.424 8.135 29.88 9.215 12.384 0.89999 34.308-1.979 43.812-2.951 9.252-0.936 9.252-3.6 11.952-2.557 2.484 0.86499 3.42 4.572 3.78 8.209 0.36 3.635-0.108 7.92-1.404 13.283-11.124 0.324-23.184-0.28702-36.756-1.836-13.68-1.656-32.544-4.859-44.1-7.668-11.484-2.809-19.512-5.867-24.372-9.18 1.008-5.182 2.052-10.366 3.096-15.587z" fill="#3f3f3f"/>
   <path d="m212.68 266.23c-11.016 12.924-20.52 23.256-28.944 31.43-8.532 8.027-18.792 14.256-21.348 17.027-2.484 2.699-0.144 3.889 6.192-0.75601 6.264-4.932 22.896-19.801 30.996-27.504 7.956-7.705 13.32-13.68 16.524-18.217-1.116-0.64801-2.268-1.295-3.42-1.98z"/>
   <path d="m369.68 261.66l0.252-1.838c1.8 0.793 7.524 3.313 17.316 7.416 9.828 4.141 36.18 14.832 41.004 17.354 4.536 2.34-3.24 0.89999-13.032-2.916-9.901-3.924-24.804-10.404-45.54-20.016z"/>
   <path d="m112.82 252.01c1.692-0.21701-1.944 2.195-10.908 7.236-9.18 5.074-36.756 18.898-43.02 22.715-6.192 3.637-3.924 3.996 5.832-0.71899 9.756-4.824 26.676-13.861 51.876-27.648-1.26-0.504-2.52-1.045-3.78-1.584z"/>
   <path d="m56.228 267.81c0.288 1.945 1.656 4.934 3.816 8.965 2.16 4.068 5.22 9.035 9.324 15.191l5.508-0.324c-3.78-5.65-6.48-10.439-8.244-14.902-1.764-4.465-2.484-8.281-2.16-11.594-1.548-0.79098-3.06-1.008-4.392-0.504-1.368 0.43301-2.7 1.441-3.852 3.168z"/>
   <g fill="#fff">
    <path d="m57.128 267.81c0.72-1.188 1.584-2.123 2.592-2.412 1.008-0.32199 2.088-0.39499 3.384 0.18201-0.36 1.367-0.972 2.412-1.98 2.734-1.044 0.28802-2.376 0.25101-3.996-0.504z"/>
    <path d="m57.56 268.89c-0.036003 1.26 1.116 3.672 3.168 7.381 2.052 3.707 5.112 8.568 9.324 14.725l2.988-0.289c-2.088-2.592-3.744-5.615-5.4-9.359-1.656-3.781-3.024-7.992-4.248-12.924-1.08 0.79098-2.088 1.223-3.024 1.295-1.008 0.071014-1.944-0.25299-2.808-0.82898z"/>
   </g>
   <path d="m151.56 298.81c0.79201 1.836 2.592 4.357 5.688 7.85 3.06 3.42 7.128 7.631 12.492 12.779l5.256-1.549c-4.86-4.643-8.676-8.748-11.304-12.707-2.7-3.961-4.212-7.523-4.68-10.836-1.728-0.396-3.204-0.21701-4.428 0.539-1.26 0.75598-2.268 2.015-3.024 3.924z"/>
   <g fill="#fff">
    <path d="m152.42 298.59c0.504-1.369 1.044-2.34 2.016-2.916 0.93599-0.64801 1.908-0.793 3.312-0.57602-0.035995 1.439-0.468 2.52-1.296 3.096-0.93599 0.53799-2.232 0.72-4.032 0.396z"/>
    <path d="m153.1 299.53c0.252 1.225 1.872 3.348 4.716 6.516 2.844 3.096 6.912 7.201 12.348 12.313l2.844-0.973c-2.52-2.051-4.968-4.643-7.344-7.92-2.412-3.383-4.752-7.092-7.02-11.664-0.864 1.008-1.8 1.656-2.664 1.945-0.93599 0.28699-1.944 0.215-2.88-0.21701z"/>
   </g>
   <path d="m433 272.93c-0.57599 1.836-2.16 4.715-4.752 8.496-2.664 3.814-6.192 8.387-10.872 14.146l-5.4-0.898c4.284-5.148 7.524-9.756 9.721-13.969 2.159-4.248 3.275-8.027 3.348-11.34 1.584-0.61099 3.168-0.61099 4.464 0 1.258 0.577 2.519 1.764 3.491 3.565z"/>
   <g fill="#fff">
    <path d="m432.1 272.78c-0.68399-1.332-1.368-2.16-2.34-2.629-0.97202-0.46701-2.088-0.574-3.348-0.18002 0.14401 1.441 0.647 2.412 1.655 2.916 0.93698 0.43201 2.233 0.397 4.033-0.107z"/>
    <path d="m431.56 273.83c-0.25198 1.295-1.476 3.455-3.96 7.02-2.483 3.42-6.084 8.027-10.8 13.68l-2.916-0.611c2.304-2.34 4.284-5.256 6.372-8.748 1.979-3.602 3.78-7.633 5.544-12.385 1.008 0.82797 1.836 1.404 2.88 1.584 1.008 0.17902 1.837-0.001007 2.88-0.54001z"/>
   </g>
  </g>
  <text transform="matrix(17.448 0 0 1 -5089.6 0)" x="316.216003" y="88.645996" font-family="Arial" font-size="24" stroke-width="0" text-anchor="middle" xml:space="preserve"/>
 </g>
</svg>
