<?xml version="1.0" encoding="UTF-8" standalone="no"?>
<svg
   xmlns:dc="http://purl.org/dc/elements/1.1/"
   xmlns:cc="http://creativecommons.org/ns#"
   xmlns:rdf="http://www.w3.org/1999/02/22-rdf-syntax-ns#"
   xmlns:svg="http://www.w3.org/2000/svg"
   xmlns="http://www.w3.org/2000/svg"
   xmlns:sodipodi="http://sodipodi.sourceforge.net/DTD/sodipodi-0.dtd"
   xmlns:inkscape="http://www.inkscape.org/namespaces/inkscape"
   viewBox="0 0 512 305.11359"
   version="1.1"
   id="svg60"
   sodipodi:docname="tent_grey.svg"
   inkscape:version="0.92.5 (2060ec1f9f, 2020-04-08)"
   width="512"
   height="305.11359"
   inkscape:export-filename="/home/marekdedic/Documents/git/crdm-modern/assets/tent_beige.png"
   inkscape:export-xdpi="96"
   inkscape:export-ydpi="96">
  <metadata
     id="metadata66">
    <rdf:RDF>
      <cc:Work
         rdf:about="">
        <dc:format>image/svg+xml</dc:format>
        <dc:type
           rdf:resource="http://purl.org/dc/dcmitype/StillImage" />
        <dc:title></dc:title>
      </cc:Work>
    </rdf:RDF>
  </metadata>
  <defs
     id="defs64" />
  <sodipodi:namedview
     pagecolor="#ffffff"
     bordercolor="#666666"
     borderopacity="1"
     objecttolerance="10"
     gridtolerance="10"
     guidetolerance="10"
     inkscape:pageopacity="0"
     inkscape:pageshadow="2"
     inkscape:window-width="1712"
     inkscape:window-height="908"
     id="namedview62"
     showgrid="false"
     inkscape:zoom="1.3169864"
     inkscape:cx="249.98775"
     inkscape:cy="68.456548"
     inkscape:window-x="0"
     inkscape:window-y="27"
     inkscape:window-maximized="1"
     inkscape:current-layer="g30" />
  <g
     id="g30"
     transform="matrix(1.9526967,0,0,1.9526967,-217.16704,-275.37635)"
     style="display:inline">
    <path
       style="display:inline;fill-rule:evenodd;stroke:#000000;stroke-width:0.036;stroke-miterlimit:10"
       sodipodi:nodetypes="ccccccccccccccccccccc"
       inkscape:connector-curvature="0"
       id="path2"
       d="m 197.56,141.09 c 7.092,13.104 16.38,22.212 28.152,27.901 11.916,5.58 25.776,10.188 42.12,5.65 16.235,-4.752 33.804,-15.624 54.072,-33.299 -0.43298,9 2.088,21.096 7.848,37.26 5.796,16.092 18.936,44.641 26.388,58.572 7.309,13.787 12.924,21.672 17.244,23.939 -2.53427,2.25434 -4.97139,3.53722 -7.38,4.535 l 2.268,21.277 c -8.352,-0.36102 -16.487,-0.43201 -24.947,-0.072 -8.496,0.21701 -6.265,0.28702 -25.381,2.016 -19.331,1.764 -48.6,4.428 -89.208,8.389 -20.7,-0.93597 -38.988,-2.412 -55.836,-4.861 -16.92,-2.52 -33.984,-6.73 -44.388,-9.574 -10.368,-2.916 -15.984,-5.473 -17.28,-7.668 0.108,-6.084 0.504,-10.766 1.188,-14.328 0.612,-3.529 1.00225,-5.07269 2.11825,-6.01069 -0.84295,-1.12982 -1.97833,-2.14709 -2.23597,-3.75149 10.62,-7.883 19.84572,-17.13082 32.30172,-31.89082 12.312,-14.904 30.636,-41.221 39.564,-54.36 8.82,-13.104 13.284,-20.916 13.392,-23.724 z" />
    <path
       style="display:inline;fill:#6f6f6f;fill-opacity:1;fill-rule:evenodd;stroke:none;stroke-width:0.036;stroke-miterlimit:10"
       inkscape:connector-curvature="0"
       d="m 309.32,160.39 c -8.892,13.5 -18.972,27 -30.672,41.076 -11.916,14.076 -28.8,31.609 -39.276,42.588 -10.44,10.729 -17.856,17.928 -22.68,21.744 4.716,-0.57599 7.668,0.43201 8.856,3.023 1.044,2.521 -1.692,7.885 -1.8,12.35 -0.072,4.428 0.324,9.107 1.332,14.184 9.144,-3.061 18.108,-5.076 27.18,-6.191 9.072,-1.189 17.964,-1.332 26.964,-0.57599 4.356,-3.924 8.208,-12.602 11.7,-26.172 3.456,-13.861 5.796,-37.873 8.964,-55.08 3.06,-17.173 6.157,-32.546 9.432,-46.946 z"
       id="path4" />
    <path
       style="display:inline;fill:#6f6f6f;fill-opacity:1;fill-rule:evenodd;stroke:none;stroke-width:0.036;stroke-miterlimit:10"
       inkscape:connector-curvature="0"
       d="m 320.36,166.44 c -1.044,3.924 2.376,13.608 10.404,29.448 8.064,15.984 20.34,37.152 37.512,65.053 l -6.443,2.916 3.672,19.152 c -0.64801,-0.686 -4.536,-1.08 -11.809,-1.332 -7.308,-0.25201 -17.747,-0.36102 -31.607,-0.18002 -5.58,-9.613 -8.82,-21.168 -9.72,-35.102 -0.90002,-14.076 2.844,-34.703 4.283,-48.131 1.332,-13.499 2.521,-23.831 3.708,-31.824 z"
       id="path6" />
    <path
       style="display:inline;fill:#ffffff;fill-rule:evenodd;stroke:none;stroke-width:0.036;stroke-miterlimit:10"
       inkscape:connector-curvature="0"
       id="path16"
       d="m 297.95,291.33 c 1.477,-19.694 3.601,-40.268 6.229,-62.863 2.592,-22.661 5.832,-46.104 9.576,-71.602 l 3.6,0.7173 c -4.859,28.432 -8.315,53.148 -10.764,75.514 -2.412,22.303 -3.601,41.018 -3.564,57.287 -1.692,0.29346 -3.384,0.61951 -5.077,0.94647 z" />
    <path
       style="display:inline;fill:#6f6f6f;fill-opacity:1;fill-rule:evenodd;stroke:none;stroke-width:0.036;stroke-miterlimit:10"
       inkscape:connector-curvature="0"
       id="path18"
       d="m 297.72,167.34 c -5.796,3.78 -13.752,6.768 -24.012,9.108 -10.404,2.268 -32.292,1.549 -37.477,4.787 -5.04,3.205 7.416,13.32 6.696,14.258 -0.972,0.57399 -8.856,-5.51 -12.276,-9.506 -3.528,-4.104 -4.248,-9.504 -8.532,-13.822 -4.5,-4.249 -13.392,-7.633 -17.532,-11.413 -4.104,-3.852 -6.372,-7.74 -6.948,-11.664 -0.68399,4.644 -4.788,12.24 -12.168,23.077 -7.56,10.906 -20.844,28.08 -32.364,41.508 -11.628,13.32 -23.652,25.668 -36.648,37.727 -0.036,2.557 4.32,5.797 13.068,9.865 8.82,4.068 25.164,13.428 39.312,14.184 14.112,0.504 28.62,-3.023 44.496,-10.729 11.16,-10.332 20.952,-19.908 29.772,-29.268 8.712,-9.324 13.429,-15.336 22.608,-26.641 9.181,-11.519 19.657,-25.019 32.005,-41.471 z"
       inkscape:label="path18" />
    <path
       inkscape:connector-curvature="0"
       id="path20"
       d="m 159.04,270.69 c -0.576,-1.26 15.66,-1.729 16.488,-6.119 0.468,-4.682 -12.996,-19.908 -12.6,-21.24 0.46799,-1.297 13.068,14.832 15.444,13.391 2.196,-1.799 -2.592,-23.076 -1.728,-23.004 0.828,0.145 5.976,17.641 6.552,24.156 0.396,6.443 0.072,12.313 -3.888,14.545 -4.176,1.978 -19.584,-0.36099 -20.268,-1.729 z"
       style="display:inline;fill-rule:evenodd;stroke:#000000;stroke-width:0.036;stroke-miterlimit:10" />
    <path
       sodipodi:nodetypes="ccccccccccc"
       style="display:inline;fill:#6f6f6f;fill-opacity:1;fill-rule:evenodd;stroke:none;stroke-width:0.036;stroke-miterlimit:10"
       inkscape:connector-curvature="0"
       id="path22"
       d="m 117.85136,258.67338 c 2.84731,2.46779 6.81464,5.50062 14.23064,8.66862 7.416,2.988 17.424,8.135 29.88,9.215 12.384,0.89999 34.308,-1.979 43.812,-2.951 9.252,-0.936 9.252,-3.6 11.952,-2.557 2.484,0.86499 3.42,4.572 3.78,8.209 0.36,3.635 -0.108,7.92 -1.404,13.283 -11.124,0.324 -23.184,-0.28702 -36.756,-1.836 -13.68,-1.656 -32.544,-4.859 -44.1,-7.668 -11.484,-2.809 -19.512,-5.867 -24.372,-9.18 1.008,-5.182 1.93336,-9.96262 2.97736,-15.18362 z" />
  </g>
</svg>
